<svg width="807" height="599" viewBox="0 0 807 599" fill="none" xmlns="http://www.w3.org/2000/svg">
<g clip-path="url(#clip0_3_4553)">
<path d="M805.9 508.6V506.2C805.8 493.8 805.1 439.1 801.3 418.6C798.4 403.1 783.6 316.1 769.3 274C759.9 246.3 756.2 221 752.3 209.1C740.3 173.4 719.3 143.4 719.3 143.4C719.3 143.4 709.8 130.3 709.2 127.1C708.6 123.9 704.5 118.5 704.5 118.5C702.077 117.759 699.604 117.191 697.1 116.8V109.9C697.105 109.513 697.006 109.133 696.812 108.798C696.619 108.464 696.338 108.188 696 108C691.5 105.1 672.6 94.3999 644.5 94.3999C617.6 94.3999 603.4 100.3 599.4 102.4C599.033 102.587 598.725 102.874 598.513 103.228C598.301 103.581 598.192 103.988 598.2 104.4V115.4C590.8 116.6 588.6 117.8 588.6 117.8C586.92 119.723 584.925 121.346 582.7 122.6C579.2 124.4 571 124.3 571 124.3H537.6C537.437 124.271 537.269 124.284 537.112 124.336C536.955 124.389 536.813 124.479 536.7 124.6C536.369 125.22 536.165 125.9 536.1 126.6H534.5C534.032 125.449 533.249 124.454 532.24 123.729C531.232 123.004 530.04 122.578 528.8 122.5H277.1C275.864 122.591 274.678 123.023 273.672 123.746C272.666 124.47 271.88 125.457 271.4 126.6H269.8C269.699 125.907 269.497 125.234 269.2 124.6C269.084 124.483 268.942 124.396 268.785 124.344C268.629 124.292 268.463 124.277 268.3 124.3H234.9C234.9 124.3 226.7 124.5 223.2 122.6C220.951 121.382 218.95 119.754 217.3 117.8C217.3 117.8 215.2 116.6 207.7 115.4V104.4C207.7 103.989 207.588 103.586 207.377 103.234C207.165 102.882 206.862 102.594 206.5 102.4C202.5 100.4 188.3 94.3999 161.4 94.3999C133.2 94.3999 114.4 105.1 109.9 108C109.562 108.188 109.281 108.464 109.088 108.798C108.894 109.133 108.795 109.513 108.8 109.9V116.8C103.7 117.8 101.4 118.5 101.4 118.5C101.4 118.5 97.3 123.8 96.7 127.1C96.1 130.4 86.6 143.4 86.6 143.4C86.6 143.4 65.6 173.4 53.6 209.1C49.6 221 45.9 246.3 36.6 274C22.3 316.1 7.5 403.1 4.6 418.6C0.8 439.1 0.1 493.8 0 506.2V508.6V508.8C0.2 511.3 3.6 544.5 20.8 568.3C21.3 569 21.9 569.7 22.4 570.4C22.4 570.426 22.4105 570.452 22.4293 570.471C22.448 570.489 22.4735 570.5 22.5 570.5C23 571.2 23.6 571.9 24.1 572.5C24.7 573.2 25.2 573.8 25.8 574.4L26 574.6C26.6 575.2 27.1 575.8 27.7 576.4L27.8 576.5C28.4 577.1 29 577.7 29.6 578.2L29.9 578.5C30.5 579 31.1 579.5 31.7 580.1L31.8 580.2C32.4 580.7 33.1 581.2 33.7 581.7C33.9 581.8 34 581.9 34.2 582C34.8428 582.5 35.5103 582.967 36.2 583.4C67.9 604.9 92.9 597.4 92.9 597.4H93C93.1 597.4 93.1 597.4 93.2 597.3H93.3C93.4 597.3 93.6 597.2 93.7 597.2C93.9 597.2 94 597.1 94.2 597H94.3C94.5293 596.92 94.763 596.853 95 596.8C95.1 596.8 95.1 596.8 95.2 596.7C95.5 596.6 95.7 596.5 96 596.4H96.1L97 596.1C97.1 596.1 97.1 596.1 97.2 596C97.5764 595.895 97.9442 595.761 98.3 595.6C98.4 595.6 98.5 595.5 98.6 595.5C99.0166 595.376 99.4189 595.209 99.8 595C99.9 595 99.9 594.9 100 594.9C100.4 594.7 100.8 594.6 101.2 594.4C101.276 594.389 101.346 594.354 101.4 594.3C101.8 594.1 102.3 593.9 102.8 593.7C102.9 593.7 103 593.6 103.1 593.6C103.618 593.408 104.12 593.174 104.6 592.9C104.7 592.9 104.8 592.8 104.9 592.8C105.418 592.608 105.92 592.374 106.4 592.1C106.476 592.089 106.546 592.054 106.6 592C107.1 591.7 107.7 591.5 108.3 591.2C108.4 591.1 108.6 591.1 108.7 591C109.3 590.7 109.8 590.4 110.4 590.1C110.5 590 110.6 590 110.7 589.9C111.3 589.6 111.8 589.3 112.4 589C112.5 589 112.5 588.9 112.6 588.9C113.2 588.6 113.8 588.2 114.5 587.8C114.61 587.695 114.75 587.625 114.9 587.6C115.5 587.2 116.2 586.9 116.8 586.5C116.91 586.395 117.05 586.325 117.2 586.3C117.9 585.9 118.5 585.5 119.2 585.1C119.227 585.1 119.252 585.089 119.271 585.071C119.289 585.052 119.3 585.026 119.3 585C131.523 577.145 142.2 567.112 150.8 555.4C151.3 554.7 151.8 554 152.3 553.2C152.4 553 152.6 552.8 152.7 552.6C153.224 551.905 153.692 551.169 154.1 550.4C154.1 550.3 154.2 550.3 154.2 550.2C154.7 549.4 155.3 548.5 155.8 547.7C155.9 547.5 156 547.4 156.1 547.2C156.6 546.4 157.1 545.5 157.6 544.7L157.7 544.6C158.3 543.6 158.8 542.7 159.4 541.7C159.5 541.6 159.5 541.5 159.6 541.4C160.1 540.4 160.7 539.4 161.3 538.4L163.1 535.1V535C185 493.4 207.4 426.2 207.4 426.2C209.005 424.141 210.93 422.352 213.1 420.9C214.986 419.585 217.136 418.698 219.4 418.3H221.3C235.584 432.258 254.758 440.082 274.73 440.1C294.701 440.119 313.89 432.332 328.2 418.4H364.2C364.2 421.2 366 420.6 368.8 420.6H436.7C439.5 420.6 442.2 421.2 442.2 418.4H478.1C492.41 432.332 511.599 440.119 531.57 440.1C551.542 440.082 570.716 432.258 585 418.3H586.9C589.164 418.698 591.314 419.585 593.2 420.9C595.37 422.352 597.295 424.141 598.9 426.2C598.9 426.2 621.4 493.4 643.2 535V535.1L645 538.4C645.6 539.4 646.1 540.4 646.7 541.4C646.8 541.5 646.8 541.6 646.9 541.7C647.5 542.7 648 543.7 648.6 544.6L648.7 544.7C649.2 545.6 649.7 546.4 650.2 547.2C650.3 547.4 650.4 547.5 650.5 547.7C651 548.6 651.6 549.4 652.1 550.2C652.1 550.3 652.2 550.3 652.2 550.4C652.7 551.1 653.2 551.9 653.6 552.6C653.7 552.8 653.9 553 654 553.2C654.5 553.9 655 554.7 655.5 555.4C664.074 567.134 674.756 577.172 687 585C687.027 585 687.052 585.01 687.071 585.029C687.089 585.048 687.1 585.073 687.1 585.1C687.8 585.5 688.4 585.9 689.1 586.3C689.21 586.405 689.35 586.475 689.5 586.5C690.111 586.904 690.746 587.271 691.4 587.6C691.51 587.705 691.65 587.775 691.8 587.8C692.4 588.2 693.1 588.5 693.7 588.9C693.8 588.9 693.8 589 693.9 589C694.5 589.3 695.1 589.6 695.6 589.9C695.7 590 695.8 590 695.9 590.1C696.5 590.4 697.1 590.7 697.6 591C697.7 591.1 697.9 591.1 698 591.2C698.6 591.5 699.1 591.7 699.7 592C699.776 592.01 699.846 592.046 699.9 592.1C700.4 592.3 700.9 592.6 701.4 592.8C701.5 592.8 701.6 592.9 701.7 592.9C702.218 593.092 702.72 593.326 703.2 593.6C703.3 593.6 703.4 593.7 703.5 593.7C704 593.9 704.4 594.1 704.9 594.3C704.976 594.31 705.046 594.346 705.1 594.4C705.5 594.6 705.9 594.7 706.3 594.9C706.4 594.9 706.4 595 706.5 595C706.9 595.2 707.3 595.3 707.7 595.5C707.8 595.5 707.9 595.6 708 595.6C708.4 595.7 708.7 595.9 709.1 596C709.2 596 709.2 596 709.3 596.1L710.2 596.4H710.3C710.573 596.483 710.84 596.583 711.1 596.7C711.2 596.7 711.2 596.7 711.3 596.8C711.4 596.9 711.8 596.9 712 597H712.1C712.3 597.1 712.5 597.1 712.6 597.2C712.8 597.2 712.9 597.3 713 597.3H713.1C713.176 597.31 713.246 597.346 713.3 597.4H713.4C713.4 597.4 738.4 604.9 770.1 583.4C770.8 582.9 771.4 582.5 772.1 582C772.3 581.9 772.4 581.8 772.6 581.7C773.2 581.2 773.9 580.7 774.5 580.2L774.6 580.1C775.2 579.6 775.8 579.1 776.4 578.5L776.7 578.2C777.3 577.6 777.9 577.1 778.5 576.5L778.6 576.4C779.2 575.8 779.7 575.2 780.3 574.6L780.5 574.4C781.1 573.8 781.6 573.1 782.2 572.5C782.8 571.8 783.3 571.2 783.8 570.5C783.8 570.473 783.811 570.448 783.829 570.429C783.848 570.41 783.873 570.4 783.9 570.4C784.4 569.7 785 569 785.5 568.3C802.7 544.5 806.1 511.3 806.3 508.8V508.7C806.3 508.7 805.9 508.7 805.9 508.6Z" fill="#ED1C24"/>
<path d="M608.7 89.3C609.2 89.3 609.8 89.2 610.3 89.2C614.7 88.9 619.9 88.6 625.3 88.3C626.6 88.2 628 88.2 629.3 88.1L637.3 87.8C638.6 87.8 639.9 87.7 641.1 87.7C642.3 87.7 643.5 87.7 644.7 87.6H646.4C664.3 87.6 697 90.8 697 90.8C696.988 90.6942 696.954 90.592 696.9 90.5V90.2C696.907 90.1457 696.901 90.0907 696.884 90.0388C696.866 89.9869 696.838 89.9395 696.8 89.9V89.6C696.769 89.3256 696.702 89.0565 696.6 88.8V88.7C696.6 88.6 696.5 88.4 696.5 88.3V88.2C694.2 77.2 685.1 34.4 677.1 21.4C668 6.4 653.4 0 642.5 0C631.6 0 628.9 3.4 619.8 10.1C610.7 16.8 604.5 30.7 602.9 38C601.7 43.5 599.6 70.4 598.6 83.2V86C598.6 86.6 598.5 87.1 598.5 87.6V88.1C598.436 88.6979 598.402 89.2987 598.4 89.9V90C598.4 90 600.3 89.9 603.4 89.6C604.7 89.5 606.6 89.4 608.7 89.3Z" fill="#ED1C24"/>
<path d="M207.7 90C207.7 89.7 207.6 89.1 207.6 88.1V87.6C207.6 87.1 207.5 86.6 207.5 86V83.3C206.5 70.5 204.4 43.6 203.2 38.1C201.6 30.8 195.5 16.8 186.3 10.2C177.1 3.6 174.1 0 163.3 0C152.5 0 137.9 6.4 128.7 21.4C120.7 34.4 111.6 77.2 109.3 88.2V88.3C109.3 88.5 109.2 88.6 109.2 88.7V88.8C109.1 89.1 109.1 89.4 109 89.6V89.9C109.007 89.9543 109.001 90.0093 108.984 90.0612C108.966 90.1131 108.938 90.1605 108.9 90.2V90.5C108.907 90.5543 108.901 90.6094 108.884 90.6612C108.866 90.7131 108.838 90.7605 108.8 90.8C108.8 90.8 141.5 87.6 159.4 87.6C177.3 87.6 207.7 90 207.7 90Z" fill="#ED1C24"/>
<path d="M171.4 251.7C176.597 250.928 181.846 250.56 187.1 250.6C197.2 250.6 204.1 252.7 209.1 256.8C214.3 261 217.5 267.4 217.5 276.6C217.5 286.2 214.2 293.4 209.1 298C203.7 302.9 195.2 305.4 184.7 305.4C180.257 305.44 175.815 305.207 171.4 304.7V251.7ZM181.3 297.4C183.094 297.578 184.898 297.645 186.7 297.6C199.5 297.7 207.1 290.6 207.1 277C207.2 265.1 200.3 258.3 188 258.3C185.75 258.21 183.498 258.412 181.3 258.9V297.4Z" fill="#F2F2F2"/>
<path d="M236.4 255.1C236.412 255.825 236.272 256.544 235.991 257.213C235.71 257.881 235.292 258.483 234.766 258.982C234.239 259.48 233.615 259.863 232.932 260.108C232.249 260.352 231.523 260.451 230.8 260.4C230.089 260.439 229.378 260.33 228.711 260.079C228.045 259.828 227.438 259.441 226.93 258.942C226.422 258.443 226.023 257.844 225.76 257.182C225.497 256.521 225.374 255.812 225.4 255.1C225.383 254.378 225.514 253.66 225.786 252.99C226.058 252.321 226.464 251.714 226.979 251.208C227.495 250.702 228.109 250.307 228.783 250.047C229.458 249.788 230.178 249.67 230.9 249.7C231.62 249.678 232.336 249.802 233.007 250.065C233.677 250.327 234.288 250.723 234.802 251.227C235.315 251.732 235.722 252.335 235.997 253C236.271 253.666 236.408 254.38 236.4 255.1ZM225.9 304.9V265.9H235.8V304.9H225.9Z" fill="#F2F2F2"/>
<path d="M245.9 295.9C248.953 297.64 252.387 298.602 255.9 298.7C260.2 298.7 262.1 296.9 262.1 294.4C262.1 291.9 260.5 290.4 255.7 288.7C248.1 286.1 244.9 281.9 245 277.3C245 270.4 250.7 265.1 259.7 265.1C263.266 265.048 266.795 265.836 270 267.4L268.1 274.4C265.595 272.989 262.775 272.232 259.9 272.2C256.4 272.2 254.5 273.9 254.5 276.3C254.5 278.7 256.3 280 261.3 281.7C268.3 284.3 271.6 287.9 271.7 293.6C271.7 300.6 266.2 305.8 255.9 305.8C251.804 305.889 247.75 304.961 244.1 303.1L245.9 295.9Z" fill="#F2F2F2"/>
<path d="M308.4 303.7C304.906 305.102 301.164 305.782 297.4 305.7C285.2 305.7 277.3 297.9 277.3 285.9C277.3 274.2 285.3 265.1 299 265.1C302.253 265.079 305.48 265.69 308.5 266.9L306.7 274.3C304.371 273.269 301.846 272.758 299.3 272.8C291.8 272.8 287.3 278.3 287.4 285.4C287.4 293.4 292.6 298 299.3 298C301.974 298.027 304.627 297.517 307.1 296.5L308.4 303.7Z" fill="#F2F2F2"/>
<path d="M352 285.1C352 299.4 341.9 305.8 332 305.8C321 305.8 312.5 298.2 312.5 285.7C312.5 272.9 320.9 265.1 332.7 265.1C344.2 265.1 352 273.3 352 285.1ZM322.6 285.5C322.6 293 326.3 298.7 332.3 298.7C337.9 298.7 341.8 293.2 341.8 285.3C341.8 279.2 339.1 272.3 332.4 272.3C325.4 272.3 322.6 279 322.6 285.5Z" fill="#F2F2F2"/>
<path d="M360.1 277.6C360.1 273.1 360 269.4 359.8 266H368.4L368.9 271.8H369.1C370.399 269.695 372.228 267.968 374.404 266.792C376.58 265.616 379.027 265.033 381.5 265.1C388.3 265.1 395.3 269.5 395.3 281.8V304.9H385.5V282.9C385.5 277.3 383.4 273.1 378.1 273.1C376.374 273.152 374.707 273.738 373.329 274.777C371.95 275.815 370.926 277.256 370.4 278.9C370.107 279.941 369.972 281.019 370 282.1V305H360.1V277.6Z" fill="#F2F2F2"/>
<path d="M405.8 277.6C405.8 273.1 405.7 269.4 405.5 266H414.1L414.6 271.8H414.8C416.099 269.695 417.928 267.968 420.104 266.792C422.28 265.616 424.727 265.033 427.2 265.1C434 265.1 441 269.5 441 281.8V304.9H431.2V282.9C431.2 277.3 429.1 273.1 423.8 273.1C422.074 273.152 420.407 273.738 419.028 274.777C417.65 275.815 416.626 277.256 416.1 278.9C415.807 279.941 415.672 281.019 415.7 282.1V305H405.8V277.6Z" fill="#F2F2F2"/>
<path d="M458.5 288.2C458.7 295.2 464.3 298.3 470.5 298.3C474.184 298.426 477.856 297.814 481.3 296.5L482.7 303.3C478.364 304.97 473.746 305.785 469.1 305.7C456.5 305.7 449 297.9 449 286C449 275.2 455.6 265 468 265C480.6 265 484.8 275.4 484.8 284C484.784 285.405 484.684 286.807 484.5 288.2H458.5ZM475.7 281.3C475.8 277.7 474.2 271.8 467.6 271.8C461.5 271.8 459 277.3 458.6 281.3H475.7Z" fill="#F2F2F2"/>
<path d="M521.5 303.7C518.006 305.102 514.264 305.782 510.5 305.7C498.3 305.7 490.4 297.9 490.4 285.9C490.4 274.2 498.4 265.1 512.1 265.1C515.353 265.079 518.58 265.69 521.6 266.9L519.8 274.3C517.471 273.269 514.946 272.758 512.4 272.8C504.9 272.8 500.4 278.3 500.5 285.4C500.5 293.4 505.7 298 512.4 298C515.074 298.027 517.726 297.517 520.2 296.5L521.5 303.7Z" fill="#F2F2F2"/>
<path d="M541.3 254.9V266H550.7V273.4H541.3V290.6C541.3 295.3 542.6 297.8 546.3 297.8C547.586 297.846 548.87 297.677 550.1 297.3L550.3 304.8C548.012 305.554 545.607 305.893 543.2 305.8C541.64 305.869 540.083 305.621 538.622 305.071C537.161 304.521 535.827 303.681 534.7 302.6C532.6 300.4 531.7 296.8 531.7 291.7V273.4H526.1V266H531.7V257.2L541.3 254.9Z" fill="#F2F2F2"/>
<path d="M564.5 288.2C564.7 295.2 570.3 298.3 576.5 298.3C580.184 298.426 583.856 297.814 587.3 296.5L588.7 303.3C584.364 304.97 579.746 305.785 575.1 305.7C562.5 305.7 555 297.9 555 286C555 275.2 561.6 265 574 265C586.6 265 590.8 275.4 590.8 284C590.784 285.405 590.684 286.807 590.5 288.2H564.5ZM581.7 281.3C581.8 277.7 580.2 271.8 573.6 271.8C567.5 271.8 565 277.3 564.6 281.3H581.7Z" fill="#F2F2F2"/>
<path d="M634.8 248.1V294C634.8 298 635 302.3 635.1 305H626.3L625.9 298.8H625.7C623.4 303.1 618.7 305.8 613 305.8C603.7 305.8 596.4 297.9 596.4 285.9C596.3 272.9 604.5 265.1 613.8 265.1C619.2 265.1 623 267.3 624.8 270.2H625V248.1H634.8ZM624.9 282.2C624.883 281.33 624.816 280.462 624.7 279.6C624.304 277.634 623.243 275.864 621.695 274.589C620.146 273.314 618.206 272.611 616.2 272.6C609.9 272.6 606.4 278.2 606.4 285.5C606.4 292.6 609.9 297.8 616.2 297.8C618.206 297.791 620.148 297.089 621.697 295.814C623.245 294.538 624.306 292.767 624.7 290.8C624.909 289.848 625.01 288.875 625 287.9L624.9 282.2Z" fill="#F2F2F2"/>
</g>
<defs>
<clipPath id="clip0_3_4553">
<rect width="806.3" height="598.67" fill="white"/>
</clipPath>
</defs>
</svg>
