<svg width="179" height="105" viewBox="0 0 179 105" fill="none" xmlns="http://www.w3.org/2000/svg">
<g clip-path="url(#clip0_3_4528)">
<path d="M124.52 20.6198C125.92 18.6198 125.72 17.7198 125.72 17.7198C125.72 17.7198 125.92 16.8198 124.52 14.8198C123.12 12.8198 109.52 1.21977 108.82 0.81977C108.12 0.41977 80.32 -1.38023 77.42 2.11977C74.52 5.61977 74.82 17.7198 74.82 17.7198C74.82 17.7198 74.52 29.8198 77.42 33.3198C80.32 36.8198 108.12 35.0198 108.82 34.6198C109.52 34.2198 123.12 22.6198 124.52 20.6198Z" fill="#A9A9A9"/>
<path opacity="0.25" d="M124.52 20.6195C125.92 18.6195 125.72 17.7195 125.72 17.7195C125.72 17.7195 125.92 16.8195 124.52 14.8195C123.62 13.5195 117.62 8.21953 113.32 4.51953C111.11 8.56982 109.942 13.1058 109.92 17.7195C109.894 22.3394 111.065 26.8873 113.32 30.9195C117.62 27.2195 123.62 21.9195 124.52 20.6195Z" fill="black"/>
<path d="M20.62 1.32023C18.62 -0.0797719 17.72 0.120228 17.72 0.120228C17.72 0.120228 16.82 -0.0797719 14.82 1.32023C12.82 2.72023 1.22001 16.3202 0.820014 17.0202C0.420014 17.7202 -1.37999 45.5202 2.12001 48.4202C5.62001 51.3202 17.72 51.0202 17.72 51.0202C17.72 51.0202 29.82 51.3202 33.32 48.4202C36.82 45.5202 35.02 17.7202 34.62 17.0202C34.22 16.3202 22.62 2.62023 20.62 1.32023Z" fill="#A9A9A9"/>
<path opacity="0.25" d="M20.62 1.32023C18.62 -0.0797719 17.72 0.120228 17.72 0.120228C17.72 0.120228 16.82 -0.0797719 14.82 1.32023C13.52 2.22023 8.22002 8.22023 4.52002 12.5202C8.57031 14.7298 13.1063 15.8982 17.72 15.9202C22.3399 15.9467 26.8878 14.7752 30.92 12.5202C27.22 8.12023 21.92 2.12023 20.62 1.32023Z" fill="black"/>
<path d="M52.22 49.8201C54.22 51.2201 55.12 51.0201 55.12 51.0201C55.12 51.0201 56.02 51.2201 58.02 49.8201C60.02 48.4201 71.62 34.8201 72.02 34.1201C72.42 33.4201 74.22 5.62014 70.72 2.72014C67.22 -0.179856 55.12 0.120144 55.12 0.120144C55.12 0.120144 43.02 -0.179856 39.52 2.72014C36.02 5.62014 37.82 33.4201 38.22 34.1201C38.62 34.8201 50.22 48.4201 52.22 49.8201Z" fill="#A9A9A9"/>
<path opacity="0.25" d="M52.22 49.8202C54.22 51.2202 55.12 51.0202 55.12 51.0202C55.12 51.0202 56.02 51.2202 58.02 49.8202C59.32 48.9202 64.62 42.9202 68.32 38.6202C64.2698 36.4105 59.7338 35.2422 55.12 35.2202C50.5002 35.1937 45.9523 36.3651 41.92 38.6202C45.62 42.9202 50.92 48.9202 52.22 49.8202Z" fill="black"/>
<path d="M175.92 2.31997C173.02 -1.18003 145.22 0.619966 144.52 1.01997C143.82 1.41997 130.22 13.02 128.82 15.02C127.42 17.02 127.62 17.92 127.62 17.92C127.62 17.92 127.42 18.82 128.82 20.82C130.22 22.82 143.82 34.42 144.52 34.82C145.22 35.22 173.02 37.02 175.92 33.52C178.82 30.02 178.52 17.92 178.52 17.92C178.52 17.92 178.72 5.81997 175.92 2.31997Z" fill="#A9A9A9"/>
<path opacity="0.25" d="M140.02 4.71973C135.72 8.41973 129.72 13.7197 128.82 15.0197C127.42 17.0197 127.62 17.9197 127.62 17.9197C127.62 17.9197 127.42 18.8197 128.82 20.8197C129.72 22.1197 135.72 27.4197 140.02 31.1197C142.23 27.0694 143.398 22.5335 143.42 17.9197C143.398 13.306 142.23 8.77002 140.02 4.71973Z" fill="black"/>
<path d="M124.52 73.6198C125.92 71.6198 125.72 70.7198 125.72 70.7198C125.72 70.7198 125.92 69.8198 124.52 67.8198C123.12 65.8198 109.52 54.2198 108.82 53.8198C108.12 53.4198 80.32 51.6198 77.42 55.1198C74.52 58.6198 74.82 70.7198 74.82 70.7198C74.82 70.7198 74.52 82.8198 77.42 86.3198C80.32 89.8198 108.12 88.0198 108.82 87.6198C109.52 87.2198 123.12 75.6198 124.52 73.6198Z" fill="black"/>
<path opacity="0.25" d="M124.52 73.6195C125.92 71.6195 125.72 70.7195 125.72 70.7195C125.72 70.7195 125.92 69.8195 124.52 67.8195C123.62 66.5195 117.62 61.2195 113.32 57.5195C111.11 61.5698 109.942 66.1058 109.92 70.7195C109.894 75.3394 111.065 79.8873 113.32 83.9195C117.62 80.2195 123.62 74.9195 124.52 73.6195Z" fill="white"/>
<path d="M20.62 54.3202C18.62 52.9202 17.72 53.1202 17.72 53.1202C17.72 53.1202 16.82 52.9202 14.82 54.3202C12.82 55.7202 1.22001 69.3202 0.820014 70.0202C0.420014 70.7202 -1.37999 98.5202 2.12001 101.42C5.62001 104.32 17.72 104.02 17.72 104.02C17.72 104.02 29.82 104.32 33.32 101.42C36.82 98.5202 35.02 70.7202 34.62 70.0202C34.22 69.3202 22.62 55.6202 20.62 54.3202Z" fill="black"/>
<path opacity="0.25" d="M20.62 54.3202C18.62 52.9202 17.72 53.1202 17.72 53.1202C17.72 53.1202 16.82 52.9202 14.82 54.3202C13.52 55.2202 8.22002 61.2202 4.52002 65.5202C8.57031 67.7298 13.1063 68.8982 17.72 68.9202C22.3399 68.9467 26.8878 67.7753 30.92 65.5202C27.22 61.1202 21.92 55.1202 20.62 54.3202Z" fill="white"/>
<path d="M52.22 102.82C54.22 104.22 55.12 104.02 55.12 104.02C55.12 104.02 56.02 104.22 58.02 102.82C60.02 101.42 71.62 87.8201 72.02 87.1201C72.42 86.4201 74.22 58.6201 70.72 55.7201C67.22 52.8201 55.12 53.1201 55.12 53.1201C55.12 53.1201 43.02 52.8201 39.52 55.7201C36.02 58.6201 37.82 86.4201 38.22 87.1201C38.62 87.8201 50.22 101.42 52.22 102.82Z" fill="black"/>
<path opacity="0.25" d="M52.22 102.82C54.22 104.22 55.12 104.02 55.12 104.02C55.12 104.02 56.02 104.22 58.02 102.82C59.32 101.92 64.62 95.9202 68.32 91.6202C64.2698 89.4106 59.7338 88.2422 55.12 88.2202C50.5002 88.1937 45.9523 89.3651 41.92 91.6202C45.62 95.9202 50.92 101.92 52.22 102.82Z" fill="white"/>
<path d="M175.92 55.2199C173.02 51.7199 145.22 53.5199 144.52 53.9199C143.82 54.3199 130.22 65.9199 128.82 67.9199C127.42 69.9199 127.62 70.8199 127.62 70.8199C127.62 70.8199 127.42 71.7199 128.82 73.7199C130.22 75.7199 143.82 87.3199 144.52 87.7199C145.22 88.1199 173.02 89.9199 175.92 86.4199C178.82 82.9199 178.52 70.8199 178.52 70.8199C178.52 70.8199 178.72 58.7199 175.92 55.2199Z" fill="black"/>
<path opacity="0.25" d="M140.02 57.6196C135.72 61.3196 129.72 66.6196 128.82 67.9196C127.42 69.9196 127.62 70.8196 127.62 70.8196C127.62 70.8196 127.42 71.7196 128.82 73.7196C129.72 75.0196 135.72 80.3196 140.02 84.0196C142.251 79.9776 143.42 75.4363 143.42 70.8196C143.42 66.203 142.251 61.6616 140.02 57.6196Z" fill="white"/>
</g>
<defs>
<clipPath id="clip0_3_4528">
<rect width="178.53" height="104.03" fill="white"/>
</clipPath>
</defs>
</svg>
