<svg width="225" height="113" viewBox="0 0 225 113" fill="none" xmlns="http://www.w3.org/2000/svg">
<g clip-path="url(#clip0_3_4487)">
<path d="M27.3 53.6C22.0984 53.6 17.0135 52.0575 12.6885 49.1677C8.3635 46.2778 4.99256 42.1703 3.00198 37.3646C1.0114 32.5589 0.490568 27.2708 1.50536 22.1691C2.52015 17.0674 5.02498 12.3812 8.7031 8.7031C12.3812 5.02498 17.0674 2.52015 22.1691 1.50536C27.2708 0.490568 32.5589 1.0114 37.3646 3.00198C42.1703 4.99256 46.2778 8.3635 49.1677 12.6885C52.0575 17.0135 53.6 22.0984 53.6 27.3C53.5921 34.2728 50.8186 40.9577 45.8881 45.8881C40.9577 50.8186 34.2728 53.5921 27.3 53.6Z" fill="white"/>
<path d="M27.3 2C32.3039 2 37.1954 3.48382 41.3559 6.26382C45.5165 9.04382 48.7593 12.9951 50.6742 17.6181C52.5891 22.2411 53.0901 27.3281 52.1139 32.2358C51.1377 37.1435 48.7281 41.6515 45.1898 45.1898C41.6515 48.7281 37.1435 51.1377 32.2358 52.1139C27.3281 53.0901 22.2411 52.5891 17.6181 50.6742C12.9951 48.7593 9.04383 45.5165 6.26383 41.3559C3.48383 37.1954 2.00001 32.3039 2.00001 27.3C2.00795 20.5925 4.67603 14.1619 9.41898 9.41897C14.1619 4.67602 20.5925 2.00794 27.3 2ZM27.3 0C21.9006 0 16.6224 1.60112 12.1329 4.60088C7.64348 7.60064 4.14437 11.8643 2.0781 16.8527C0.0118287 21.8412 -0.528802 27.3303 0.524574 32.626C1.57795 37.9216 4.17802 42.786 7.996 46.604C11.814 50.422 16.6784 53.0221 21.974 54.0754C27.2697 55.1288 32.7588 54.5882 37.7473 52.5219C42.7357 50.4556 46.9994 46.9565 49.9991 42.4671C52.9989 37.9776 54.6 32.6994 54.6 27.3C54.5894 20.0628 51.7098 13.1251 46.5923 8.00767C41.4749 2.89022 34.5372 0.0105807 27.3 0Z" fill="#D2D2D2"/>
<path d="M41.7 14.8999L39.7 12.8999L27.3 25.2999L14.9 12.8999L12.9 14.8999L25.3 27.2999L12.9 39.6999L14.9 41.6999L27.3 29.2999L39.7 41.6999L41.7 39.6999L29.3 27.2999L41.7 14.8999Z" fill="black"/>
<path d="M83.8 53.4997C78.5899 53.5195 73.4913 51.9913 69.151 49.1091C64.8107 46.2268 61.4242 42.1203 59.4213 37.3106C57.4183 32.5008 56.889 27.2045 57.9006 22.0935C58.9123 16.9825 61.4191 12.2871 65.1032 8.60301C68.7874 4.91887 73.4828 2.41201 78.5938 1.40041C83.7048 0.388804 89.0011 0.918056 93.8108 2.92102C98.6206 4.92399 102.727 8.31042 105.609 12.6507C108.492 16.991 110.02 22.0896 110 27.2997C109.966 34.2379 107.194 40.8821 102.288 45.7882C97.3823 50.6942 90.7381 53.4656 83.8 53.4997Z" fill="white"/>
<path d="M83.8 2.09979C88.8038 2.09979 93.6953 3.58361 97.8559 6.36361C102.016 9.14361 105.259 13.0949 107.174 17.7179C109.089 22.3409 109.59 27.4279 108.614 32.3356C107.638 37.2433 105.228 41.7513 101.69 45.2896C98.1515 48.8279 93.6435 51.2374 88.7358 52.2137C83.828 53.1899 78.7411 52.6888 74.1181 50.7739C69.4951 48.859 65.5438 45.6163 62.7638 41.4557C59.9838 37.2952 58.5 32.4037 58.5 27.3998C58.5079 20.6923 61.176 14.2617 65.9189 9.51876C70.6619 4.77581 77.0924 2.10773 83.8 2.09979ZM83.8 0.0997919C78.3921 0.0800188 73.1001 1.66684 68.5954 4.65898C64.0906 7.65113 60.576 11.9138 58.4974 16.9063C56.4187 21.8987 55.8697 27.3961 56.9199 32.7011C57.97 38.0061 60.5722 42.8796 64.3961 46.7036C68.2201 50.5276 73.0937 53.1297 78.3987 54.1799C83.7037 55.2301 89.201 54.681 94.1935 52.6024C99.186 50.5237 103.449 47.0091 106.441 42.5044C109.433 37.9996 111.02 32.7077 111 27.2998C110.963 20.0972 108.086 13.2002 102.993 8.10714C97.8996 3.0141 91.0025 0.136581 83.8 0.0997919Z" fill="#D2D2D2"/>
<path d="M83.8 8.3999C80.062 8.3999 76.4078 9.50837 73.2998 11.5851C70.1917 13.6619 67.7692 16.6137 66.3387 20.0672C64.9082 23.5207 64.5339 27.3209 65.2632 30.9871C65.9925 34.6534 67.7925 38.021 70.4357 40.6642C73.0789 43.3074 76.4466 45.1075 80.1128 45.8367C83.7791 46.566 87.5792 46.1917 91.0327 44.7612C94.4863 43.3307 97.438 40.9083 99.5148 37.8002C101.592 34.6921 102.7 31.038 102.7 27.2999C102.687 22.2914 100.691 17.4917 97.1498 13.9502C93.6082 10.4086 88.8086 8.4131 83.8 8.3999ZM83.8 43.2999C80.6355 43.2999 77.5421 42.3615 74.9109 40.6034C72.2797 38.8453 70.229 36.3465 69.018 33.4228C67.807 30.4992 67.4901 27.2822 68.1075 24.1785C68.7248 21.0748 70.2487 18.2238 72.4863 15.9862C74.724 13.7486 77.5749 12.2247 80.6786 11.6073C83.7823 10.99 86.9993 11.3068 89.923 12.5178C92.8466 13.7288 95.3454 15.7796 97.1035 18.4108C98.8616 21.042 99.8 24.1354 99.8 27.2999C99.8 31.5434 98.1143 35.613 95.1137 38.6136C92.1132 41.6142 88.0435 43.2999 83.8 43.2999Z" fill="black"/>
<path d="M140.3 54.1C135.098 54.1 130.014 52.5575 125.689 49.6677C121.363 46.7778 117.993 42.6703 116.002 37.8646C114.011 33.0589 113.491 27.7708 114.505 22.6691C115.52 17.5674 118.025 12.8812 121.703 9.2031C125.381 5.52498 130.067 3.02015 135.169 2.00536C140.271 0.990568 145.559 1.5114 150.365 3.50198C155.17 5.49257 159.278 8.8635 162.168 13.1885C165.058 17.5135 166.6 22.5984 166.6 27.8C166.592 34.7728 163.819 41.4577 158.888 46.3881C153.958 51.3186 147.273 54.0921 140.3 54.1Z" fill="white"/>
<path d="M140.3 2.7002C145.304 2.7002 150.195 4.18401 154.356 6.96401C158.517 9.74401 161.759 13.6953 163.674 18.3183C165.589 22.9413 166.09 28.0283 165.114 32.936C164.138 37.8437 161.728 42.3517 158.19 45.89C154.652 49.4283 150.144 51.8379 145.236 52.8141C140.328 53.7903 135.241 53.2892 130.618 51.3743C125.995 49.4594 122.044 46.2167 119.264 42.0561C116.484 37.8956 115 33.0041 115 28.0002C115.008 21.2927 117.676 14.8621 122.419 10.1192C127.162 5.37621 133.592 2.70813 140.3 2.7002ZM140.3 0.700195C134.901 0.700195 129.622 2.30131 125.133 5.30107C120.643 8.30084 117.144 12.5645 115.078 17.5529C113.012 22.5414 112.471 28.0305 113.525 33.3262C114.578 38.6218 117.178 43.4862 120.996 47.3042C124.814 51.1222 129.678 53.7223 134.974 54.7756C140.27 55.829 145.759 55.2884 150.747 53.2221C155.736 51.1558 159.999 47.6567 162.999 43.1673C165.999 38.6778 167.6 33.3996 167.6 28.0002C167.589 20.763 164.71 13.8253 159.592 8.70787C154.475 3.59042 147.537 0.710776 140.3 0.700195Z" fill="#D2D2D2"/>
<path d="M151.8 13.5H126V42.1H154.6V13.5H151.8ZM151.8 39.4H128.8V16.4H151.8V39.4Z" fill="black"/>
<path d="M196.8 54.7997C191.598 54.7997 186.514 53.2572 182.189 50.3674C177.864 47.4775 174.493 43.37 172.502 38.5643C170.511 33.7586 169.991 28.4705 171.005 23.3688C172.02 18.2671 174.525 13.5809 178.203 9.90281C181.881 6.22469 186.567 3.71986 191.669 2.70507C196.771 1.69027 202.059 2.2111 206.865 4.20169C211.67 6.19227 215.778 9.56321 218.668 13.8882C221.558 18.2132 223.1 23.2981 223.1 28.4997C223.092 35.4725 220.319 42.1574 215.388 47.0879C210.458 52.0183 203.773 54.7918 196.8 54.7997Z" fill="white"/>
<path d="M196.8 3.2998C201.804 3.2998 206.695 4.78362 210.856 7.56362C215.016 10.3436 218.259 14.2949 220.174 18.9179C222.089 23.5409 222.59 28.6279 221.614 33.5356C220.638 38.4433 218.228 42.9513 214.69 46.4896C211.152 50.0279 206.644 52.4375 201.736 53.4137C196.828 54.3899 191.741 53.8889 187.118 51.974C182.495 50.0591 178.544 46.8163 175.764 42.6557C172.984 38.4952 171.5 33.6037 171.5 28.5998C171.508 21.8923 174.176 15.4617 178.919 10.7188C183.662 5.97582 190.092 3.30774 196.8 3.2998ZM196.8 1.2998C191.401 1.2998 186.122 2.90092 181.633 5.90068C177.143 8.90045 173.644 13.1641 171.578 18.1525C169.512 23.141 168.971 28.6301 170.025 33.9258C171.078 39.2215 173.678 44.0858 177.496 47.9038C181.314 51.7218 186.178 54.3219 191.474 55.3752C196.77 56.4286 202.259 55.888 207.247 53.8217C212.236 51.7554 216.499 48.2563 219.499 43.7669C222.499 39.2774 224.1 33.9992 224.1 28.5998C224.089 21.3626 221.21 14.4249 216.092 9.30748C210.975 4.19002 204.037 1.31039 196.8 1.2998Z" fill="#D2D2D2"/>
<path d="M212.8 36.6L196.8 9L180.8 36.6L179.2 39.4H214.4L212.8 36.6ZM196.8 36.6H184.1L196.8 14.7L209.5 36.6H196.8Z" fill="black"/>
<path d="M27.3 111.4C22.0984 111.4 17.0135 109.857 12.6885 106.967C8.3635 104.078 4.99256 99.9701 3.00198 95.1644C1.0114 90.3587 0.490568 85.0706 1.50536 79.9689C2.52015 74.8672 5.02498 70.181 8.7031 66.5029C12.3812 62.8248 17.0674 60.32 22.1691 59.3052C27.2708 58.2904 32.5589 58.8112 37.3646 60.8018C42.1703 62.7924 46.2778 66.1633 49.1677 70.4883C52.0575 74.8133 53.6 79.8982 53.6 85.0998C53.5921 92.0726 50.8186 98.7575 45.8881 103.688C40.9577 108.618 34.2728 111.392 27.3 111.4Z" fill="black"/>
<path d="M27.3 59.7998C32.3039 59.7998 37.1954 61.2836 41.3559 64.0636C45.5165 66.8436 48.7593 70.7949 50.6742 75.4179C52.5891 80.0409 53.0901 85.1279 52.1139 90.0356C51.1377 94.9433 48.7281 99.4513 45.1898 102.99C41.6515 106.528 37.1435 108.937 32.2358 109.914C27.3281 110.89 22.2411 110.389 17.6181 108.474C12.9951 106.559 9.04383 103.316 6.26383 99.1557C3.48383 94.9952 2.00001 90.1037 2.00001 85.0998C2.00795 78.3923 4.67603 71.9617 9.41898 67.2188C14.1619 62.4758 20.5925 59.8077 27.3 59.7998ZM27.3 57.7998C21.9006 57.7998 16.6224 59.4009 12.1329 62.4007C7.64348 65.4004 4.14437 69.6641 2.0781 74.6525C0.0118287 79.641 -0.528802 85.1301 0.524574 90.4258C1.57795 95.7215 4.17802 100.586 7.996 104.404C11.814 108.222 16.6784 110.822 21.974 111.875C27.2697 112.929 32.7588 112.388 37.7473 110.322C42.7357 108.255 46.9994 104.756 49.9991 100.267C52.9989 95.7774 54.6 90.4992 54.6 85.0998C54.5894 77.8626 51.7098 70.9249 46.5923 65.8075C41.4749 60.69 34.5372 57.8104 27.3 57.7998Z" fill="#242424"/>
<path d="M41.7 72.6997L39.7 70.6997L27.3 83.0997L14.9 70.6997L12.9 72.6997L25.3 85.0997L12.9 97.4997L14.9 99.4997L27.3 87.0997L39.7 99.4997L41.7 97.4997L29.3 85.0997L41.7 72.6997Z" fill="white"/>
<path d="M83.8 111.2C78.5984 111.2 73.5135 109.657 69.1885 106.767C64.8635 103.877 61.4926 99.7699 59.502 94.9642C57.5114 90.1585 56.9906 84.8704 58.0054 79.7687C59.0202 74.667 61.525 69.9808 65.2031 66.3027C68.8812 62.6246 73.5674 60.1198 78.6691 59.105C83.7708 58.0902 89.0589 58.611 93.8646 60.6016C98.6703 62.5922 102.778 65.9631 105.668 70.2881C108.558 74.6131 110.1 79.698 110.1 84.8996C110.092 91.8724 107.319 98.5573 102.388 103.488C97.4577 108.418 90.7728 111.192 83.8 111.2Z" fill="black"/>
<path d="M83.8 59.7998C88.8039 59.7998 93.6954 61.2836 97.8559 64.0636C102.017 66.8436 105.259 70.7949 107.174 75.4179C109.089 80.0409 109.59 85.1279 108.614 90.0356C107.638 94.9433 105.228 99.4513 101.69 102.99C98.1515 106.528 93.6435 108.937 88.7358 109.914C83.8281 110.89 78.7411 110.389 74.1181 108.474C69.4952 106.559 65.5438 103.316 62.7638 99.1557C59.9838 94.9952 58.5 90.1037 58.5 85.0998C58.508 78.3923 61.176 71.9617 65.919 67.2188C70.6619 62.4758 77.0925 59.8077 83.8 59.7998ZM83.8 57.7998C78.4006 57.7998 73.1224 59.4009 68.6329 62.4007C64.1435 65.4004 60.6444 69.6641 58.5781 74.6525C56.5118 79.641 55.9712 85.1301 57.0246 90.4258C58.078 95.7215 60.678 100.586 64.496 104.404C68.314 108.222 73.1784 110.822 78.474 111.875C83.7697 112.929 89.2589 112.388 94.2473 110.322C99.2357 108.255 103.499 104.756 106.499 100.267C109.499 95.7774 111.1 90.4992 111.1 85.0998C111.089 77.8626 108.21 70.9249 103.092 65.8075C97.9749 60.69 91.0372 57.8104 83.8 57.7998Z" fill="#242424"/>
<path d="M83.8 66.0996C80.062 66.0996 76.4078 67.2081 73.2998 69.2848C70.1917 71.3616 67.7692 74.3134 66.3387 77.7669C64.9082 81.2204 64.5339 85.0206 65.2632 88.6868C65.9925 92.3531 67.7925 95.7207 70.4357 98.3639C73.0789 101.007 76.4466 102.807 80.1128 103.536C83.7791 104.266 87.5792 103.891 91.0327 102.461C94.4863 101.03 97.438 98.608 99.5148 95.4999C101.592 92.3918 102.7 88.7377 102.7 84.9996C102.687 79.9911 100.691 75.1915 97.1498 71.6499C93.6082 68.1083 88.8086 66.1128 83.8 66.0996ZM83.8 101C80.6355 101 77.5421 100.061 74.9109 98.3031C72.2797 96.545 70.229 94.0462 69.018 91.1225C67.807 88.1989 67.4901 84.9819 68.1075 81.8782C68.7248 78.7745 70.2487 75.9235 72.4863 73.6859C74.724 71.4483 77.5749 69.9244 80.6786 69.307C83.7823 68.6897 86.9993 69.0065 89.923 70.2175C92.8466 71.4285 95.3454 73.4793 97.1035 76.1105C98.8616 78.7417 99.8 81.8351 99.8 84.9996C99.8 89.2431 98.1143 93.3127 95.1137 96.3133C92.1132 99.3139 88.0435 101 83.8 101Z" fill="white"/>
<path d="M140.3 111.2C135.098 111.2 130.014 109.657 125.689 106.767C121.363 103.877 117.993 99.7699 116.002 94.9642C114.011 90.1585 113.491 84.8704 114.505 79.7687C115.52 74.667 118.025 69.9808 121.703 66.3027C125.381 62.6246 130.067 60.1198 135.169 59.105C140.271 58.0902 145.559 58.611 150.365 60.6016C155.17 62.5922 159.278 65.9631 162.168 70.2881C165.058 74.6131 166.6 79.698 166.6 84.8996C166.592 91.8724 163.819 98.5573 158.888 103.488C153.958 108.418 147.273 111.192 140.3 111.2Z" fill="black"/>
<path d="M140.3 59.7998C145.304 59.7998 150.195 61.2836 154.356 64.0636C158.517 66.8436 161.759 70.7949 163.674 75.4179C165.589 80.0409 166.09 85.1279 165.114 90.0356C164.138 94.9433 161.728 99.4513 158.19 102.99C154.652 106.528 150.144 108.937 145.236 109.914C140.328 110.89 135.241 110.389 130.618 108.474C125.995 106.559 122.044 103.316 119.264 99.1557C116.484 94.9952 115 90.1037 115 85.0998C115.008 78.3923 117.676 71.9617 122.419 67.2188C127.162 62.4758 133.592 59.8077 140.3 59.7998ZM140.3 57.7998C134.901 57.7998 129.622 59.4009 125.133 62.4007C120.643 65.4004 117.144 69.6641 115.078 74.6525C113.012 79.641 112.471 85.1301 113.525 90.4258C114.578 95.7215 117.178 100.586 120.996 104.404C124.814 108.222 129.678 110.822 134.974 111.875C140.27 112.929 145.759 112.388 150.747 110.322C155.736 108.255 159.999 104.756 162.999 100.267C165.999 95.7774 167.6 90.4992 167.6 85.0998C167.589 77.8626 164.71 70.9249 159.592 65.8075C154.475 60.69 147.537 57.8104 140.3 57.7998Z" fill="#242424"/>
<path d="M151.8 70.5996H126V99.1996H154.6V70.5996H151.8ZM151.8 96.4996H128.8V73.4996H151.8V96.4996Z" fill="white"/>
<path d="M196.8 111.3C191.598 111.3 186.514 109.757 182.189 106.867C177.864 103.977 174.493 99.87 172.502 95.0643C170.511 90.2586 169.991 84.9705 171.005 79.8688C172.02 74.7671 174.525 70.0809 178.203 66.4028C181.881 62.7247 186.567 60.2199 191.669 59.2051C196.771 58.1903 202.059 58.7111 206.865 60.7017C211.67 62.6923 215.778 66.0632 218.668 70.3882C221.558 74.7132 223.1 79.7981 223.1 84.9997C223.092 91.9725 220.319 98.6574 215.388 103.588C210.458 108.518 203.773 111.292 196.8 111.3Z" fill="black"/>
<path d="M196.8 59.7998C201.804 59.7998 206.695 61.2836 210.856 64.0636C215.016 66.8436 218.259 70.7949 220.174 75.4179C222.089 80.0409 222.59 85.1279 221.614 90.0356C220.638 94.9433 218.228 99.4513 214.69 102.99C211.152 106.528 206.644 108.937 201.736 109.914C196.828 110.89 191.741 110.389 187.118 108.474C182.495 106.559 178.544 103.316 175.764 99.1557C172.984 94.9952 171.5 90.1037 171.5 85.0998C171.508 78.3923 174.176 71.9617 178.919 67.2188C183.662 62.4758 190.092 59.8077 196.8 59.7998ZM196.8 57.7998C191.401 57.7998 186.122 59.4009 181.633 62.4007C177.143 65.4004 173.644 69.6641 171.578 74.6525C169.512 79.641 168.971 85.1301 170.025 90.4258C171.078 95.7215 173.678 100.586 177.496 104.404C181.314 108.222 186.178 110.822 191.474 111.875C196.77 112.929 202.259 112.388 207.247 110.322C212.236 108.255 216.499 104.756 219.499 100.267C222.499 95.7774 224.1 90.4992 224.1 85.0998C224.089 77.8626 221.21 70.9249 216.092 65.8075C210.975 60.69 204.037 57.8104 196.8 57.7998Z" fill="#242424"/>
<path d="M212.8 92.9999L196.8 65.3999L180.8 92.9999L179.2 95.7999H214.4L212.8 92.9999ZM196.8 92.9999H184.1L196.8 71.0999L209.5 92.9999H196.8Z" fill="white"/>
</g>
<defs>
<clipPath id="clip0_3_4487">
<rect width="224.1" height="112.4" fill="white"/>
</clipPath>
</defs>
</svg>
