<svg width="264" height="152" viewBox="0 0 264 152" fill="none" xmlns="http://www.w3.org/2000/svg">
<g clip-path="url(#clip0_3_4453)">
<path d="M263.7 5.59952C263.467 4.04204 262.683 2.61987 261.49 1.59203C260.297 0.564183 258.775 -0.000962134 257.2 -0.000482699H6.59998C5.02008 -0.0199802 3.4875 0.538428 2.29046 1.56972C1.09343 2.60101 0.314429 4.03412 0.0999792 5.59952C0.0168055 6.29625 -0.0166124 6.99803 -2.07811e-05 7.69952V135.1C-0.00133545 137.214 0.414206 139.308 1.22284 141.262C2.03148 143.216 3.21734 144.992 4.71263 146.487C6.20791 147.982 7.98329 149.168 9.93722 149.977C11.8912 150.785 13.9853 151.201 16.1 151.2H247.7C249.815 151.201 251.909 150.785 253.863 149.977C255.817 149.168 257.592 147.982 259.087 146.487C260.583 144.992 261.768 143.216 262.577 141.262C263.386 139.308 263.801 137.214 263.8 135.1V7.69952C263.8 6.89952 263.7 6.19952 263.7 5.59952Z" fill="#313131"/>
<path d="M259.3 1.9C259.3 1.39609 259.1 0.912816 258.743 0.556497C258.387 0.200178 257.904 0 257.4 0L6.19999 0C5.69608 0 5.2128 0.200178 4.85648 0.556497C4.50017 0.912816 4.29999 1.39609 4.29999 1.9V131.1C4.30528 135.236 5.95055 139.201 8.87497 142.125C11.7994 145.049 15.7642 146.695 19.9 146.7H243.7C247.836 146.695 251.801 145.049 254.725 142.125C257.649 139.201 259.295 135.236 259.3 131.1V1.9Z" fill="#121212"/>
</g>
<defs>
<clipPath id="clip0_3_4453">
<rect width="263.8" height="151.2" fill="white"/>
</clipPath>
</defs>
</svg>
