<svg width="201" height="91" viewBox="0 0 201 91" fill="none" xmlns="http://www.w3.org/2000/svg">
<g clip-path="url(#clip0_3_4438)">
<path d="M200 90.8C200 90.8 167.3 87.6 149.4 87.6C131.5 87.6 101.1 90 101.1 90C101.1 90 104.2 45.3 105.9 38C107.6 30.7 113.6 16.7 122.8 10.1C132 3.5 134.8 0 145.6 0C156.4 0 171 6.4 180.2 21.4C189.4 36.4 200 90.8 200 90.8Z" fill="#0B0B0B"/>
<path d="M101.6 83.1998C101.6 83.1998 127.7 78.7998 150.6 78.7998C173.5 78.7998 198.5 83.1998 198.5 83.1998C199.5 87.8998 200.1 90.7998 200.1 90.7998C200.1 90.7998 167.4 87.5998 149.5 87.5998C131.6 87.5998 101.2 89.9998 101.2 89.9998C101.2 89.9998 101.2 87.2998 101.6 83.1998Z" fill="#1D1D1D"/>
<g opacity="0.08">
<path d="M151.6 65.7003L148.4 68.3003C147.187 69.4926 146.472 71.1011 146.4 72.8003H156.2V70.2003H150C150.557 69.4248 151.273 68.777 152.1 68.3003C153.092 67.7277 154.001 67.021 154.8 66.2003C155.641 65.3083 156.107 64.1265 156.1 62.9003C156.123 62.2812 156.01 61.6646 155.768 61.0943C155.526 60.5239 155.161 60.0139 154.7 59.6003C153.723 58.7789 152.475 58.351 151.2 58.4003C148.1 58.4003 146.5 60.1003 146.5 63.4003H149.2C149.2 61.6003 149.9 60.7003 151.3 60.7003C151.579 60.671 151.86 60.706 152.123 60.8028C152.386 60.8995 152.624 61.0553 152.817 61.2582C153.01 61.4611 153.154 61.7056 153.238 61.973C153.322 62.2404 153.343 62.5234 153.3 62.8003C153.261 63.3825 153.087 63.9475 152.792 64.4509C152.497 64.9542 152.089 65.382 151.6 65.7003Z" fill="white"/>
<path d="M134 67.2003H137C138.5 67.2003 139.3 67.8003 139.4 69.1003C139.5 70.4003 139.6 71.6004 139.7 72.9004H143V72.5004C142.5 72.3004 142.3 71.8004 142.3 71.0004C142.295 70.7303 142.328 70.4608 142.4 70.2003V69.5004C142.477 68.8046 142.348 68.1015 142.028 67.479C141.707 66.8565 141.211 66.3421 140.6 66.0004C141.297 65.7662 141.895 65.3025 142.294 64.6849C142.694 64.0673 142.872 63.3324 142.8 62.6003C142.84 62.0326 142.743 61.4635 142.517 60.9413C142.291 60.419 141.942 59.9591 141.5 59.6003C140.592 58.8867 139.453 58.5309 138.3 58.6003H131V72.8004H134V67.2003ZM134 61.0004H137.7C139.1 61.0004 139.8 61.6004 139.8 62.9004C139.8 64.2004 139 64.8004 137.5 64.8004H134V61.0004Z" fill="white"/>
</g>
<path d="M0.0999756 90.8C0.0999756 90.8 32.8 87.6 50.7 87.6C68.6 87.6 99 90 99 90C99 90 95.9 45.3 94.2 38C92.5 30.7 86.5 16.7 77.3 10.1C68.1 3.5 65.3 0 54.5 0C43.7 0 29.1 6.4 19.9 21.4C10.7 36.4 0.0999756 90.8 0.0999756 90.8Z" fill="#0B0B0B"/>
<path d="M98.5 83.1998C98.5 83.1998 72.4 78.7998 49.5 78.7998C26.6 78.7998 1.6 83.1998 1.6 83.1998C0.6 87.8998 0 90.7998 0 90.7998C0 90.7998 32.7 87.5998 50.6 87.5998C68.5 87.5998 98.9 89.9998 98.9 89.9998C98.9 89.9998 98.9 87.2998 98.5 83.1998Z" fill="#1D1D1D"/>
<g opacity="0.08">
<path d="M64.6 65.7003L61.4 68.3003C60.1871 69.4926 59.4723 71.1011 59.4 72.8003H69.2V70.2003H63C63.5569 69.4248 64.2728 68.777 65.1 68.3003C66.0922 67.7277 67.0008 67.021 67.8 66.2003C68.6414 65.3083 69.107 64.1265 69.1 62.9003C69.1232 62.2812 69.0098 61.6646 68.7678 61.0943C68.5259 60.5239 68.1613 60.0139 67.7 59.6003C66.7232 58.7789 65.4753 58.351 64.2 58.4003C61.1 58.4003 59.5 60.1003 59.5 63.4003H62.2C62.2 61.6003 62.9 60.7003 64.3 60.7003C64.5787 60.671 64.8603 60.706 65.1233 60.8028C65.3863 60.8995 65.6235 61.0553 65.8168 61.2582C66.01 61.4611 66.1541 61.7056 66.2378 61.973C66.3216 62.2404 66.3429 62.5234 66.3 62.8003C66.2828 63.3875 66.1181 63.961 65.821 64.4678C65.5239 64.9746 65.104 65.3984 64.6 65.7003Z" fill="white"/>
<path d="M56.1 70.2H49V58.5H46V72.8H56.1V70.2Z" fill="white"/>
</g>
</g>
<defs>
<clipPath id="clip0_3_4438">
<rect width="200.1" height="90.8" fill="white"/>
</clipPath>
</defs>
</svg>
