<svg width="99" height="23" viewBox="0 0 99 23" fill="none" xmlns="http://www.w3.org/2000/svg">
<g clip-path="url(#clip0_3_5098)">
<path d="M0.000204668 15.5C-0.00514069 15.1135 0.0943083 14.7327 0.287988 14.3982C0.481667 14.0637 0.762344 13.7878 1.1002 13.6C5.6002 10.7 24.4002 0 52.6002 0C79.5002 0 93.7002 5.9 97.7002 8C98.0676 8.18739 98.3749 8.47426 98.5871 8.82789C98.7992 9.18152 98.9077 9.58767 98.9002 10C98.9002 10 89.1002 7.1 51.4002 7.1C13.7002 7.1 0.000204668 15.5 0.000204668 15.5Z" fill="#F5F5F5"/>
<path d="M0 22.4001V15.5001C0 15.5001 13.7 7.1001 51.4 7.1001C89.1 7.1001 98.9 10.0001 98.9 10.0001V21.0001C91.2 19.7001 77.7 18.4001 54.8 18.4001C26.3 18.4001 8.9 20.7001 0 22.4001Z" fill="#EDEDED"/>
</g>
<defs>
<clipPath id="clip0_3_5098">
<rect width="98.9" height="22.4" fill="white"/>
</clipPath>
</defs>
</svg>
