<svg width="179" height="104" viewBox="0 0 179 104" fill="none" xmlns="http://www.w3.org/2000/svg">
<g clip-path="url(#clip0_3_5053)">
<path d="M124.52 20.6198C125.92 18.6198 125.72 17.7198 125.72 17.7198C125.72 17.7198 125.92 16.8198 124.52 14.8198C123.12 12.8198 109.52 1.21977 108.82 0.81977C108.12 0.41977 80.32 -1.38023 77.42 2.11977C74.52 5.61977 74.82 17.7198 74.82 17.7198C74.82 17.7198 74.52 29.8198 77.42 33.3198C80.32 36.8198 108.12 35.0198 108.82 34.6198C109.52 34.2198 123.12 22.6198 124.52 20.6198Z" fill="#1A1A1A"/>
<path opacity="0.25" d="M124.52 20.6195C125.92 18.6195 125.72 17.7195 125.72 17.7195C125.72 17.7195 125.92 16.8195 124.52 14.8195C123.62 13.5195 117.62 8.21953 113.32 4.51953C111.11 8.56982 109.942 13.1058 109.92 17.7195C109.894 22.3394 111.065 26.8873 113.32 30.9195C117.62 27.2195 123.62 21.9195 124.52 20.6195Z" fill="black"/>
<path d="M52.22 49.7196C54.22 51.1196 55.12 50.9196 55.12 50.9196C55.12 50.9196 56.02 51.1196 58.02 49.7196C60.02 48.3196 71.62 34.7196 72.02 34.0196C72.42 33.3196 74.22 5.51956 70.72 2.61956C67.22 -0.280442 55.12 0.0195585 55.12 0.0195585C55.12 0.0195585 43.02 -0.180442 39.52 2.61956C36.02 5.41956 37.82 33.3196 38.22 34.0196C38.62 34.7196 50.22 48.3196 52.22 49.7196Z" fill="#1A1A1A"/>
<path opacity="0.25" d="M52.22 49.7196C54.22 51.1196 55.12 50.9196 55.12 50.9196C55.12 50.9196 56.02 51.1196 58.02 49.7196C59.32 48.8196 64.62 42.8196 68.32 38.5196C64.2697 36.31 59.7338 35.1416 55.12 35.1196C50.5001 35.0931 45.9522 36.2646 41.92 38.5196C45.62 42.8196 50.92 48.8196 52.22 49.7196Z" fill="black"/>
<path d="M175.92 2.21987C173.02 -1.28013 145.22 0.519868 144.52 0.919868C143.82 1.31987 130.22 12.9199 128.82 14.9199C127.42 16.9199 127.62 17.8199 127.62 17.8199C127.62 17.8199 127.42 18.7199 128.82 20.7199C130.22 22.7199 143.82 34.3199 144.52 34.7199C145.22 35.1199 173.02 36.9199 175.92 33.4199C178.82 29.9199 178.52 17.8199 178.52 17.8199C178.52 17.8199 178.82 5.71987 175.92 2.21987Z" fill="#1A1A1A"/>
<path opacity="0.25" d="M140.12 4.61963C135.82 8.31963 129.82 13.6196 128.92 14.9196C127.52 16.9196 127.72 17.8196 127.72 17.8196C127.72 17.8196 127.52 18.7196 128.92 20.7196C129.82 22.0196 135.82 27.3196 140.12 31.0196C142.33 26.9693 143.498 22.4334 143.52 17.8196C143.498 13.2059 142.33 8.66992 140.12 4.61963Z" fill="black"/>
<path d="M20.62 1.21964C18.62 -0.180358 17.72 0.0196422 17.72 0.0196422C17.72 0.0196422 16.82 -0.180358 14.82 1.21964C12.82 2.61964 1.22 16.2196 0.82 16.9196C0.42 17.6196 -1.38 45.4196 2.12 48.3196C5.62 51.2196 17.72 50.9196 17.72 50.9196C17.72 50.9196 29.82 51.2196 33.32 48.3196C36.82 45.4196 35.02 17.6196 34.62 16.9196C34.22 16.2196 22.62 2.61964 20.62 1.21964Z" fill="#1A1A1A"/>
<path opacity="0.25" d="M20.62 1.21964C18.62 -0.180358 17.72 0.0196422 17.72 0.0196422C17.72 0.0196422 16.82 -0.180358 14.82 1.21964C13.52 2.11964 8.22 8.11964 4.52 12.4196C8.57029 14.6293 13.1062 15.7976 17.72 15.8196C22.3399 15.8461 26.8878 14.6747 30.92 12.4196C27.22 8.11964 21.92 2.11964 20.62 1.21964Z" fill="black"/>
<path d="M124.52 73.6198C125.92 71.6198 125.72 70.7198 125.72 70.7198C125.72 70.7198 125.92 69.8198 124.52 67.8198C123.12 65.8198 109.52 54.2198 108.82 53.8198C108.12 53.4198 80.32 51.6198 77.42 55.1198C74.52 58.6198 74.82 70.7198 74.82 70.7198C74.82 70.7198 74.52 82.8198 77.42 86.3198C80.32 89.8198 108.12 88.0198 108.82 87.6198C109.52 87.2198 123.12 75.6198 124.52 73.6198Z" fill="#E6E6E6"/>
<path opacity="0.25" d="M124.52 73.6195C125.92 71.6195 125.72 70.7195 125.72 70.7195C125.72 70.7195 125.92 69.8195 124.52 67.8195C123.62 66.5195 117.62 61.2195 113.32 57.5195C111.11 61.5698 109.942 66.1058 109.92 70.7195C109.894 75.3394 111.065 79.8873 113.32 83.9195C117.62 80.2195 123.62 74.9195 124.52 73.6195Z" fill="white"/>
<path d="M52.22 102.72C54.22 104.12 55.12 103.92 55.12 103.92C55.12 103.92 56.02 104.12 58.02 102.72C60.02 101.32 71.62 87.7196 72.02 87.0196C72.42 86.3196 74.22 58.5196 70.72 55.6196C67.22 52.7196 55.12 53.0196 55.12 53.0196C55.12 53.0196 43.02 52.8196 39.52 55.6196C36.02 58.4196 37.82 86.3196 38.22 87.0196C38.62 87.7196 50.22 101.32 52.22 102.72Z" fill="#E6E6E6"/>
<path opacity="0.25" d="M52.22 102.72C54.22 104.12 55.12 103.92 55.12 103.92C55.12 103.92 56.02 104.12 58.02 102.72C59.32 101.82 64.62 95.8196 68.32 91.5196C64.2697 89.31 59.7338 88.1416 55.12 88.1196C50.5001 88.0931 45.9522 89.2646 41.92 91.5196C45.62 95.8196 50.92 101.82 52.22 102.72Z" fill="white"/>
<path d="M175.92 55.1198C173.02 51.6198 145.22 53.4198 144.52 53.8198C143.82 54.2198 130.22 65.8198 128.82 67.8198C127.42 69.8198 127.62 70.7198 127.62 70.7198C127.62 70.7198 127.42 71.6198 128.82 73.6198C130.22 75.6198 143.82 87.2198 144.52 87.6198C145.22 88.0198 173.02 89.8198 175.92 86.3198C178.82 82.8198 178.52 70.7198 178.52 70.7198C178.52 70.7198 178.82 58.6198 175.92 55.1198Z" fill="#E6E6E6"/>
<path opacity="0.25" d="M140.12 57.6196C135.82 61.3196 129.82 66.6196 128.92 67.9196C127.52 69.9196 127.72 70.8196 127.72 70.8196C127.72 70.8196 127.52 71.7196 128.92 73.7196C129.82 75.0196 135.82 80.3196 140.12 84.0196C142.351 79.9776 143.52 75.4363 143.52 70.8196C143.52 66.203 142.351 61.6616 140.12 57.6196Z" fill="white"/>
<path d="M20.62 54.2196C18.62 52.8196 17.72 53.0196 17.72 53.0196C17.72 53.0196 16.82 52.8196 14.82 54.2196C12.82 55.6196 1.22 69.2196 0.82 69.9196C0.42 70.6196 -1.38 98.4196 2.12 101.32C5.62 104.22 17.72 103.92 17.72 103.92C17.72 103.92 29.82 104.22 33.32 101.32C36.82 98.4196 35.02 70.6196 34.62 69.9196C34.22 69.2196 22.62 55.6196 20.62 54.2196Z" fill="#E6E6E6"/>
<path opacity="0.25" d="M20.62 54.2196C18.62 52.8196 17.72 53.0196 17.72 53.0196C17.72 53.0196 16.82 52.8196 14.82 54.2196C13.52 55.1196 8.22 61.1196 4.52 65.4196C8.57029 67.6293 13.1062 68.7976 17.72 68.8196C22.3399 68.8461 26.8878 67.6747 30.92 65.4196C27.22 61.1196 21.92 55.1196 20.62 54.2196Z" fill="white"/>
</g>
<defs>
<clipPath id="clip0_3_5053">
<rect width="178.53" height="103.93" fill="white"/>
</clipPath>
</defs>
</svg>
