<svg width="224" height="113" viewBox="0 0 224 113" fill="none" xmlns="http://www.w3.org/2000/svg">
<g clip-path="url(#clip0_3_5010)">
<path d="M83.8 111.3C78.604 111.31 73.5219 109.777 69.1975 106.897C64.8731 104.016 61.5008 99.9169 59.5078 95.1183C57.5148 90.3197 56.9907 85.0376 58.002 79.9409C59.0133 74.8443 61.5144 70.1624 65.1885 66.4883C68.8626 62.8141 73.5445 60.313 78.6412 59.3018C83.7378 58.2905 89.02 58.8146 93.8186 60.8075C98.6172 62.8005 102.716 66.1728 105.597 70.4973C108.477 74.8217 110.01 79.9038 110 85.0998C109.966 92.0379 107.195 98.6821 102.288 103.588C97.3824 108.494 90.7381 111.266 83.8 111.3Z" fill="#E6E6E6"/>
<path d="M83.8 59.7999C88.7897 59.8097 93.6646 61.2978 97.8093 64.0761C101.954 66.8544 105.183 70.7984 107.087 75.4102C108.992 80.022 109.488 85.0947 108.512 89.9881C107.536 94.8815 105.133 99.376 101.604 102.904C98.0761 106.433 93.5816 108.836 88.6883 109.812C83.7949 110.788 78.7221 110.292 74.1103 108.387C69.4985 106.482 65.5545 103.254 62.7762 99.1091C59.9979 94.9645 58.5099 90.0896 58.5 85.0998C58.5027 78.3907 61.169 71.9571 65.9131 67.213C70.6572 62.4689 77.0908 59.8025 83.8 59.7999ZM83.8 57.7999C78.4105 57.79 73.139 59.3785 68.6523 62.3645C64.1656 65.3506 60.6651 69.6 58.5935 74.5755C56.5219 79.551 55.9722 85.0291 57.0139 90.317C58.0557 95.6049 60.6421 100.465 64.4461 104.283C68.25 108.101 73.1008 110.705 78.3848 111.766C83.6688 112.828 89.1489 112.298 94.1319 110.245C99.115 108.191 103.377 104.706 106.38 100.231C109.382 95.7549 110.99 90.4894 111 85.0998C110.997 77.8775 108.134 70.9503 103.036 65.834C97.9389 60.7177 91.0223 57.8289 83.8 57.7999Z" fill="#F0F0F0"/>
<path d="M83.8 66.1997C80.0619 66.1997 76.4078 67.3082 73.2997 69.3849C70.1916 71.4617 67.7692 74.4135 66.3387 77.867C64.9082 81.3205 64.5339 85.1207 65.2632 88.7869C65.9924 92.4532 67.7925 95.8208 70.4357 98.464C73.0789 101.107 76.4466 102.907 80.1128 103.637C83.779 104.366 87.5792 103.992 91.0327 102.561C94.4862 101.131 97.438 98.7081 99.5148 95.6C101.592 92.4919 102.7 88.8378 102.7 85.0997C102.687 80.0912 100.691 75.2915 97.1497 71.75C93.6082 68.2084 88.8085 66.2129 83.8 66.1997ZM83.8 101.1C80.6355 101.1 77.5421 100.161 74.9109 98.4032C72.2797 96.6451 70.2289 94.1463 69.0179 91.2226C67.8069 88.299 67.4901 85.082 68.1074 81.9783C68.7248 78.8746 70.2487 76.0236 72.4863 73.786C74.7239 71.5484 77.5749 70.0245 80.6786 69.4071C83.7823 68.7898 86.9993 69.1066 89.9229 70.3176C92.8466 71.5286 95.3454 73.5794 97.1035 76.2106C98.8616 78.8418 99.8 81.9352 99.8 85.0997C99.8 89.3432 98.1143 93.4128 95.1137 96.4134C92.1131 99.414 88.0435 101.1 83.8 101.1Z" fill="black"/>
<path d="M27.2 111.3C22.0268 111.26 16.9811 109.69 12.699 106.787C8.41678 103.884 5.08981 99.7789 3.13742 94.9881C1.18504 90.1974 0.694641 84.9358 1.72805 79.8668C2.76145 74.7977 5.2724 70.1481 8.94438 66.5039C12.6164 62.8597 17.285 60.3842 22.3617 59.3894C27.4385 58.3946 32.6962 58.925 37.472 60.9137C42.2477 62.9025 46.3279 66.2606 49.198 70.5647C52.0682 74.8688 53.5998 79.9263 53.6 85.0996C53.5961 88.556 52.9092 91.9776 51.5786 95.1676C50.248 98.3577 48.3001 101.253 45.8468 103.688C43.3935 106.123 40.4831 108.049 37.2831 109.355C34.083 110.661 30.6563 111.322 27.2 111.3Z" fill="#E6E6E6"/>
<path d="M27.3 59.7998C32.2897 59.8097 37.1646 61.2977 41.3093 64.076C45.454 66.8543 48.6826 70.7983 50.5875 75.4101C52.4924 80.0219 52.9882 85.0947 52.0123 89.9881C51.0365 94.8814 48.6327 99.3759 45.1044 102.904C41.5761 106.432 37.0816 108.836 32.1883 109.812C27.2949 110.788 22.2221 110.292 17.6103 108.387C12.9985 106.482 9.05452 103.254 6.27622 99.1091C3.49792 94.9644 2.00989 90.0895 2 85.0998C2.00265 78.3906 4.66903 71.957 9.41313 67.2129C14.1572 62.4688 20.5908 59.8025 27.3 59.7998ZM27.3 57.7998C21.9006 57.7998 16.6224 59.4009 12.1329 62.4007C7.64347 65.4004 4.14436 69.6641 2.07809 74.6525C0.0118163 79.641 -0.528815 85.1301 0.524562 90.4258C1.57794 95.7215 4.17801 100.586 7.99599 104.404C11.814 108.222 16.6784 110.822 21.974 111.875C27.2697 112.929 32.7588 112.388 37.7473 110.322C42.7357 108.255 46.9994 104.756 49.9991 100.267C52.9989 95.7774 54.6 90.4992 54.6 85.0998C54.5894 77.8626 51.7098 70.9249 46.5923 65.8075C41.4749 60.69 34.5372 57.8104 27.3 57.7998Z" fill="#F0F0F0"/>
<path d="M41.6 72.6997L39.6 70.6997L27.3 83.0997L14.9 70.6997L12.9 72.6997L25.2 85.0997L12.9 97.3997L14.9 99.4997L27.3 87.0997L39.6 99.4997L41.6 97.3997L29.3 85.0997L41.6 72.6997Z" fill="black"/>
<path d="M140.3 111.3C135.113 111.29 130.044 109.743 125.735 106.855C121.426 103.967 118.069 99.8666 116.089 95.0721C114.108 90.2776 113.592 85.0038 114.607 79.9164C115.621 74.8291 118.12 70.1564 121.788 66.4883C125.457 62.8202 130.129 60.3211 135.217 59.3066C140.304 58.2922 145.578 58.8078 150.372 60.7884C155.167 62.769 159.267 66.1258 162.155 70.4349C165.043 74.744 166.59 79.8123 166.6 84.9998C166.607 88.4554 165.931 91.8783 164.611 95.0721C163.292 98.266 161.355 101.168 158.912 103.611C156.468 106.055 153.566 107.992 150.372 109.311C147.179 110.631 143.756 111.306 140.3 111.3Z" fill="#E6E6E6"/>
<path d="M140.3 59.7998C145.29 59.8097 150.165 61.2977 154.309 64.076C158.454 66.8543 161.683 70.7983 163.587 75.4101C165.492 80.0219 165.988 85.0947 165.012 89.9881C164.036 94.8814 161.633 99.3759 158.104 102.904C154.576 106.432 150.082 108.836 145.188 109.812C140.295 110.788 135.222 110.292 130.61 108.387C125.999 106.482 122.055 103.254 119.276 99.1091C116.498 94.9644 115.01 90.0895 115 85.0998C115.003 78.3906 117.669 71.957 122.413 67.2129C127.157 62.4688 133.591 59.8025 140.3 59.7998ZM140.3 57.7998C134.91 57.8097 129.645 59.4176 125.169 62.42C120.693 65.4225 117.209 69.6848 115.155 74.6679C113.102 79.6509 112.572 85.131 113.633 90.415C114.695 95.6991 117.299 100.55 121.117 104.354C124.935 108.158 129.795 110.744 135.083 111.786C140.371 112.828 145.849 112.278 150.824 110.206C155.8 108.135 160.049 104.634 163.035 100.147C166.021 95.6608 167.61 90.3893 167.6 84.9998C167.571 77.7776 164.682 70.8609 159.566 65.7633C154.45 60.6658 147.522 57.8024 140.3 57.7998Z" fill="#F0F0F0"/>
<path d="M151.8 70.6997H126V99.2997H154.6V70.6997H151.8ZM151.8 96.5997H128.8V73.5997H151.8V96.5997Z" fill="black"/>
<path d="M196.7 111.3C191.508 111.29 186.436 109.741 182.125 106.848C177.813 103.955 174.457 99.8494 172.479 95.049C170.501 90.2487 169.992 84.9697 171.014 79.8797C172.037 74.7896 174.546 70.1171 178.224 66.4529C181.902 62.7888 186.584 60.2977 191.678 59.2945C196.772 58.2913 202.049 58.8212 206.842 60.8171C211.634 62.8131 215.728 66.1854 218.604 70.5077C221.48 74.8299 223.01 79.908 223 85.0998C222.966 92.0552 220.181 98.7144 215.253 103.623C210.325 108.532 203.655 111.292 196.7 111.3Z" fill="#E6E6E6"/>
<path d="M196.8 59.7999C201.79 59.8097 206.665 61.2978 210.809 64.0761C214.954 66.8544 218.183 70.7984 220.087 75.4102C221.992 80.022 222.488 85.0947 221.512 89.9881C220.536 94.8815 218.133 99.376 214.604 102.904C211.076 106.433 206.582 108.836 201.688 109.812C196.795 110.788 191.722 110.292 187.11 108.387C182.499 106.482 178.555 103.254 175.776 99.1091C172.998 94.9645 171.51 90.0896 171.5 85.0998C171.503 78.3907 174.169 71.9571 178.913 67.213C183.657 62.4689 190.091 59.8025 196.8 59.7999ZM196.8 57.7999C191.41 57.79 186.139 59.3785 181.652 62.3645C177.166 65.3506 173.665 69.6 171.593 74.5755C169.522 79.551 168.972 85.0291 170.014 90.317C171.056 95.6049 173.642 100.465 177.446 104.283C181.25 108.101 186.101 110.705 191.385 111.766C196.669 112.828 202.149 112.298 207.132 110.245C212.115 108.191 216.377 104.706 219.38 100.231C222.382 95.7549 223.99 90.4894 224 85.0998C223.997 77.8775 221.134 70.9503 216.036 65.834C210.939 60.7177 204.022 57.8289 196.8 57.7999Z" fill="#F0F0F0"/>
<path d="M212.7 93.1L196.7 65.5L180.7 93.1L179.1 95.9H214.3L212.7 93.1ZM196.8 93.1H184.1L196.8 71.2L209.5 93.1H196.8Z" fill="black"/>
<path d="M83.8 53.5C78.6083 53.5098 73.5302 51.98 69.2079 49.1038C64.8856 46.2276 61.5133 42.1344 59.5174 37.3416C57.5215 32.5488 56.9916 27.2718 57.9947 22.1779C58.9979 17.084 61.489 12.402 65.1532 8.72385C68.8173 5.04574 73.4898 2.53676 78.5799 1.5142C83.6699 0.491641 88.9489 1.00142 93.7493 2.97907C98.5496 4.95673 102.656 8.31343 105.548 12.6247C108.441 16.936 109.99 22.0082 110 27.2C109.992 34.1555 107.232 40.8253 102.324 45.7529C97.4147 50.6805 90.7554 53.4656 83.8 53.5Z" fill="#1A1A1A"/>
<path d="M83.8 2.00018C88.7897 2.01007 93.6646 3.4981 97.8093 6.2764C101.954 9.05471 105.183 12.9987 107.087 17.6105C108.992 22.2223 109.488 27.2951 108.512 32.1884C107.536 37.0818 105.133 41.5763 101.604 45.1046C98.0761 48.6328 93.5816 51.0366 88.6883 52.0125C83.7949 52.9884 78.7221 52.4926 74.1103 50.5877C69.4985 48.6827 65.5545 45.4542 62.7762 41.3095C59.9979 37.1648 58.5099 32.2899 58.5 27.3002C58.4921 23.9755 59.1411 20.682 60.4097 17.6089C61.6784 14.5358 63.5417 11.7436 65.8926 9.39274C68.2435 7.04184 71.0356 5.17856 74.1088 3.90991C77.1819 2.64127 80.4753 1.99227 83.8 2.00018ZM83.8 0.000183233C78.3964 -0.0196105 73.1084 1.56467 68.6058 4.55237C64.1032 7.54008 60.5885 11.7968 58.5069 16.7834C56.4253 21.7701 55.8704 27.2623 56.9124 32.5646C57.9545 37.8668 60.5466 42.7406 64.3606 46.5686C68.1746 50.3965 73.0388 53.0066 78.3371 54.0681C83.6355 55.1296 89.1298 54.5948 94.124 52.5315C99.1183 50.4682 103.388 46.9692 106.392 42.4776C109.396 37.986 111 32.7039 111 27.3002C110.99 20.0803 108.124 13.1576 103.028 8.04303C97.9319 2.92843 91.0198 0.0371466 83.8 0.000183233Z" fill="#0F0F0F"/>
<path d="M83.8 8.40039C80.0619 8.40039 76.4078 9.50886 73.2997 11.5856C70.1916 13.6624 67.7692 16.6142 66.3387 20.0677C64.9082 23.5212 64.5339 27.3214 65.2632 30.9876C65.9924 34.6538 67.7925 38.0215 70.4357 40.6647C73.0789 43.3079 76.4466 45.108 80.1128 45.8372C83.779 46.5665 87.5792 46.1922 91.0327 44.7617C94.4862 43.3312 97.438 40.9088 99.5148 37.8007C101.592 34.6926 102.7 31.0385 102.7 27.3004C102.687 22.2919 100.691 17.4922 97.1497 13.9507C93.6082 10.4091 88.8085 8.41359 83.8 8.40039ZM83.8 43.3004C80.6355 43.3004 77.5421 42.362 74.9109 40.6039C72.2797 38.8458 70.2289 36.3469 69.0179 33.4233C67.8069 30.4997 67.4901 27.2826 68.1074 24.1789C68.7248 21.0752 70.2487 18.2243 72.4863 15.9867C74.7239 13.749 77.5749 12.2252 80.6786 11.6078C83.7823 10.9905 86.9993 11.3073 89.9229 12.5183C92.8466 13.7293 95.3454 15.7801 97.1035 18.4113C98.8616 21.0425 99.8 24.1359 99.8 27.3004C99.8 31.5439 98.1143 35.6135 95.1137 38.6141C92.1131 41.6147 88.0435 43.3004 83.8 43.3004Z" fill="white"/>
<path d="M27.2 53.5C22.0083 53.4901 16.936 51.9409 12.6248 49.0483C8.31347 46.1556 4.95677 42.0496 2.97911 37.2492C1.00146 32.4489 0.491677 27.1699 1.51424 22.0798C2.5368 16.9898 5.04577 12.3173 8.72388 8.65314C12.402 4.98901 17.084 2.49786 22.178 1.49469C27.2719 0.49153 32.5489 1.02142 37.3416 3.01734C42.1344 5.01327 46.2277 8.38559 49.1038 12.7079C51.98 17.0301 53.5099 22.1082 53.5 27.3C53.4762 34.2586 50.6945 40.924 45.7646 45.8352C40.8346 50.7463 34.1587 53.5027 27.2 53.5Z" fill="#1A1A1A"/>
<path d="M27.3 2.00002C32.2897 2.00991 37.1646 3.49793 41.3093 6.27624C45.454 9.05454 48.6826 12.9986 50.5875 17.6103C52.4924 22.2221 52.9882 27.2949 52.0123 32.1883C51.0365 37.0816 48.6327 41.5761 45.1044 45.1044C41.5761 48.6327 37.0816 51.0365 32.1883 52.0123C27.2949 52.9882 22.2221 52.4924 17.6103 50.5875C12.9985 48.6826 9.05453 45.454 6.27623 41.3093C3.49793 37.1646 2.0099 32.2897 2.00001 27.3C2.00795 20.5925 4.67603 14.1619 9.41898 9.41898C14.1619 4.67603 20.5925 2.00796 27.3 2.00002ZM27.3 1.65213e-05C21.9006 1.65213e-05 16.6224 1.60113 12.1329 4.6009C7.64348 7.60066 4.14437 11.8643 2.0781 16.8528C0.0118287 21.8412 -0.528802 27.3303 0.524574 32.626C1.57795 37.9217 4.17802 42.7861 7.996 46.604C11.814 50.422 16.6784 53.0221 21.974 54.0755C27.2697 55.1288 32.7588 54.5882 37.7473 52.5219C42.7357 50.4557 46.9994 46.9565 49.9991 42.4671C52.9989 37.9776 54.6 32.6994 54.6 27.3C54.604 23.7138 53.9005 20.1621 52.53 16.8481C51.1594 13.5341 49.1487 10.523 46.6128 7.9872C44.077 5.45137 41.0659 3.44062 37.7519 2.07007C34.438 0.69951 30.8862 -0.00393086 27.3 1.65213e-05Z" fill="#0F0F0F"/>
<path d="M41.6 14.8999L39.6 12.8999L27.3 25.1999L14.9 12.8999L12.9 14.8999L25.2 27.1999L12.9 39.5999L14.9 41.5999L27.3 29.2999L39.6 41.5999L41.6 39.5999L29.3 27.1999L41.6 14.8999Z" fill="white"/>
<path d="M140.3 54.2002C135.108 54.1903 130.036 52.6411 125.725 49.7484C121.413 46.8558 118.057 42.7497 116.079 37.9494C114.101 33.1491 113.592 27.8701 114.614 22.78C115.637 17.69 118.146 13.0175 121.824 9.35333C125.502 5.68921 130.184 3.19805 135.278 2.19489C140.372 1.19173 145.649 1.72161 150.442 3.71754C155.234 5.71347 159.328 9.08579 162.204 13.4081C165.08 17.7303 166.61 22.8084 166.6 28.0002C166.596 31.4481 165.912 34.8614 164.588 38.0449C163.264 41.2284 161.325 44.1195 158.882 46.553C156.439 48.9864 153.541 50.9143 150.352 52.2265C147.164 53.5387 143.748 54.2094 140.3 54.2002Z" fill="#1A1A1A"/>
<path d="M140.3 2.7002C145.294 2.71009 150.173 4.20065 154.32 6.98338C158.467 9.7661 161.695 13.716 163.597 18.3336C165.499 22.9512 165.989 28.0291 165.005 32.9252C164.021 37.8213 161.607 42.3156 158.069 45.8399C154.531 49.3642 150.027 51.7601 145.127 52.7247C140.227 53.6893 135.151 53.1792 130.541 51.2589C125.931 49.3387 121.994 46.0945 119.228 41.9367C116.461 37.7789 114.99 32.8942 115 27.9002C115.034 21.21 117.714 14.8051 122.454 10.0837C127.194 5.36237 133.61 2.70803 140.3 2.7002ZM140.3 0.700195C134.915 0.710086 129.653 2.31541 125.18 5.31348C120.706 8.31154 117.221 12.5679 115.165 17.5451C113.108 22.5224 112.573 27.9973 113.626 33.2786C114.679 38.5599 117.273 43.4108 121.081 47.2188C124.889 51.0268 129.74 53.6211 135.022 54.6741C140.303 55.7271 145.778 55.1917 150.755 53.1354C155.732 51.0791 159.989 47.5942 162.987 43.1206C165.985 38.6471 167.59 33.3855 167.6 28.0002C167.589 20.763 164.71 13.8253 159.592 8.70787C154.475 3.59042 147.537 0.710776 140.3 0.700195Z" fill="#0F0F0F"/>
<path d="M151.8 13.5H126V42.1H154.6V13.5H151.8ZM151.8 39.4H128.8V16.4H151.8V39.4Z" fill="white"/>
<path d="M196.7 54.8007C191.494 54.8007 186.405 53.2556 182.078 50.3613C177.751 47.467 174.38 43.3536 172.393 38.542C170.405 33.7305 169.89 28.4373 170.913 23.3329C171.936 18.2285 174.451 13.5425 178.139 9.8684C181.827 6.19429 186.522 3.69738 191.631 2.69391C196.739 1.69044 202.03 2.22556 206.834 4.23148C211.638 6.23741 215.739 9.62391 218.616 13.9621C221.494 18.3002 223.02 23.3948 223 28.6007C222.966 35.5561 220.181 42.2154 215.253 47.1243C210.325 52.0332 203.655 54.7929 196.7 54.8007Z" fill="#1A1A1A"/>
<path d="M196.8 3.30048C201.804 3.30048 206.695 4.7843 210.856 7.5643C215.016 10.3443 218.259 14.2956 220.174 18.9186C222.089 23.5416 222.59 28.6285 221.614 33.5363C220.638 38.444 218.228 42.952 214.69 46.4903C211.152 50.0285 206.644 52.4381 201.736 53.4143C196.828 54.3906 191.741 53.8895 187.118 51.9746C182.495 50.0597 178.544 46.817 175.764 42.6564C172.984 38.4958 171.5 33.6043 171.5 28.6005C171.508 21.8929 174.176 15.4624 178.919 10.7194C183.662 5.97649 190.092 3.30842 196.8 3.30048ZM196.8 1.30048C191.396 1.28068 186.108 2.86496 181.606 5.85266C177.103 8.84037 173.589 13.0971 171.507 18.0837C169.425 23.0704 168.87 28.5626 169.912 33.8649C170.954 39.1671 173.547 44.0409 177.361 47.8689C181.175 51.6968 186.039 54.3069 191.337 55.3684C196.636 56.4299 202.13 55.8951 207.124 53.8318C212.118 51.7685 216.388 48.2695 219.392 43.7779C222.396 39.2863 224 34.0042 224 28.6005C223.99 21.3806 221.124 14.4579 216.028 9.34332C210.932 4.22872 204.02 1.33744 196.8 1.30048Z" fill="#0F0F0F"/>
<path d="M212.7 36.6005L196.7 9.00049L180.7 36.6005L179.1 39.4005H214.3L212.7 36.6005ZM196.8 36.6005H184.1L196.8 14.7005L209.5 36.6005H196.8Z" fill="white"/>
</g>
<defs>
<clipPath id="clip0_3_5010">
<rect width="224" height="112.4" fill="white"/>
</clipPath>
</defs>
</svg>
