<svg width="29" height="47" viewBox="0 0 29 47" fill="none" xmlns="http://www.w3.org/2000/svg">
<g clip-path="url(#clip0_3_5006)">
<path d="M14.2 1.7C15.8415 1.7 17.467 2.02332 18.9835 2.65151C20.5001 3.27969 21.8781 4.20043 23.0388 5.36117C24.1996 6.5219 25.1203 7.89989 25.7485 9.41646C26.3767 10.933 26.7 12.5585 26.7 14.2V32.5C26.7 35.8152 25.383 38.9946 23.0388 41.3388C20.6946 43.683 17.5152 45 14.2 45C10.8848 45 7.70537 43.683 5.36117 41.3388C3.01696 38.9946 1.7 35.8152 1.7 32.5V14.2C1.7 10.8848 3.01696 7.70537 5.36117 5.36117C7.70537 3.01696 10.8848 1.7 14.2 1.7ZM14.2 0C10.438 0.0131771 6.83381 1.51348 4.17364 4.17364C1.51348 6.83381 0.0131771 10.438 0 14.2L0 32.5C0 36.2661 1.49607 39.8779 4.15908 42.5409C6.8221 45.2039 10.4339 46.7 14.2 46.7C17.9661 46.7 21.5779 45.2039 24.2409 42.5409C26.9039 39.8779 28.4 36.2661 28.4 32.5V14.2C28.3868 10.438 26.8865 6.83381 24.2264 4.17364C21.5662 1.51348 17.962 0.0131771 14.2 0Z" fill="white"/>
<path d="M14.2 1.7002C10.8848 1.7002 7.70537 3.01716 5.36117 5.36136C3.01696 7.70556 1.7 10.885 1.7 14.2002V32.5002C1.7 35.8154 3.01696 38.9948 5.36117 41.339C7.70537 43.6832 10.8848 45.0002 14.2 45.0002C17.5152 45.0002 20.6946 43.6832 23.0388 41.339C25.383 38.9948 26.7 35.8154 26.7 32.5002V14.2002C26.7 12.5587 26.3767 10.9332 25.7485 9.41665C25.1203 7.90008 24.1996 6.52209 23.0388 5.36136C21.8781 4.20063 20.5001 3.27989 18.9835 2.6517C17.467 2.02352 15.8415 1.7002 14.2 1.7002Z" fill="#EFEEE5"/>
</g>
<defs>
<clipPath id="clip0_3_5006">
<rect width="28.4" height="46.7" fill="white"/>
</clipPath>
</defs>
</svg>
