<svg width="264" height="152" viewBox="0 0 264 152" fill="none" xmlns="http://www.w3.org/2000/svg">
<g clip-path="url(#clip0_3_4977)">
<path d="M263.7 5.59952C263.468 4.04204 262.683 2.61987 261.49 1.59203C260.297 0.564183 258.775 -0.000962134 257.2 -0.000482699H6.6C5.0201 -0.0199802 3.48752 0.538428 2.29048 1.56972C1.09345 2.60101 0.31445 4.03412 0.1 5.59952C0.0168263 6.29625 -0.0165917 6.99803 0 7.69952V135.1C-0.00131467 137.214 0.414227 139.308 1.22286 141.262C2.0315 143.216 3.21736 144.992 4.71265 146.487C6.20793 147.982 7.98331 149.168 9.93724 149.977C11.8912 150.785 13.9853 151.201 16.1 151.2H247.7C249.815 151.201 251.909 150.785 253.863 149.977C255.817 149.168 257.592 147.982 259.087 146.487C260.583 144.992 261.769 143.216 262.577 141.262C263.386 139.308 263.801 137.214 263.8 135.1V7.69952C263.822 6.99798 263.788 6.29583 263.7 5.59952Z" fill="#EDEDED"/>
<path d="M259.3 1.9C259.3 1.39609 259.1 0.912816 258.744 0.556497C258.387 0.200178 257.904 0 257.4 0L6.3 0C5.79609 0 5.31282 0.200178 4.9565 0.556497C4.60018 0.912816 4.4 1.39609 4.4 1.9V131.1C4.40529 135.236 6.05056 139.201 8.97498 142.125C11.8994 145.049 15.8642 146.695 20 146.7H243.8C247.936 146.695 251.901 145.049 254.825 142.125C257.749 139.201 259.395 135.236 259.4 131.1V7.9L259.3 1.9Z" fill="#F7F7F7"/>
</g>
<defs>
<clipPath id="clip0_3_4977">
<rect width="263.8" height="151.2" fill="white"/>
</clipPath>
</defs>
</svg>
