<svg width="200" height="91" viewBox="0 0 200 91" fill="none" xmlns="http://www.w3.org/2000/svg">
<g clip-path="url(#clip0_3_4962)">
<path d="M200 90.8C200 90.8 167.3 87.6 149.4 87.6C131.5 87.6 101 90 101 90C101 90 104.1 45.3 105.8 38C107.5 30.7 113.5 16.7 122.7 10.1C131.9 3.5 134.7 0 145.5 0C156.3 0 170.9 6.4 180.1 21.4C189.3 36.4 200 90.8 200 90.8Z" fill="#EDEDED"/>
<path d="M101.5 83.1998C101.5 83.1998 127.6 78.7998 150.5 78.7998C173.4 78.7998 198.4 83.1998 198.4 83.1998C199.4 87.8998 200 90.7998 200 90.7998C200 90.7998 167.3 87.5998 149.4 87.5998C131.5 87.5998 101 89.9998 101 89.9998C101 89.9998 101.2 87.2998 101.5 83.1998Z" fill="#F5F5F5"/>
<g opacity="0.08">
<path d="M151.5 65.7003L148.3 68.3003C147.087 69.4926 146.372 71.1011 146.3 72.8003H156.1V70.2003H149.9C150.457 69.4248 151.173 68.777 152 68.3003C152.992 67.7277 153.901 67.021 154.7 66.2003C155.541 65.3083 156.007 64.1265 156 62.9003C156.023 62.2812 155.91 61.6646 155.668 61.0943C155.426 60.5239 155.061 60.0139 154.6 59.6003C153.623 58.7789 152.375 58.351 151.1 58.4003C148 58.4003 146.4 60.1003 146.4 63.4003H149.1C149.1 61.6003 149.8 60.7003 151.2 60.7003C151.479 60.671 151.76 60.706 152.023 60.8028C152.286 60.8995 152.524 61.0553 152.717 61.2582C152.91 61.4611 153.054 61.7056 153.138 61.973C153.222 62.2404 153.243 62.5234 153.2 62.8003C153.3 63.9003 152.7 64.8003 151.5 65.7003Z" fill="black"/>
<path d="M134 67.2003H137C138.5 67.2003 139.3 67.8003 139.4 69.1003C139.5 70.4003 139.6 71.6004 139.7 72.9004H143V72.5004C142.5 72.3004 142.3 71.8004 142.3 71.0004C142.295 70.7303 142.328 70.4608 142.4 70.2003V69.5004C142.477 68.8046 142.348 68.1015 142.028 67.479C141.707 66.8565 141.211 66.3421 140.6 66.0004C141.297 65.7662 141.895 65.3025 142.294 64.6849C142.694 64.0673 142.872 63.3324 142.8 62.6003C142.84 62.0326 142.743 61.4635 142.517 60.9413C142.291 60.419 141.942 59.9591 141.5 59.6003C140.592 58.8867 139.453 58.5309 138.3 58.6003H131V72.9004H134V67.2003ZM134 61.0004H137.7C139.1 61.0004 139.8 61.6004 139.8 62.9004C139.8 64.2004 139 64.8004 137.5 64.8004H134V61.0004Z" fill="black"/>
</g>
<path d="M0.1 90.8C0.1 90.8 32.8 87.6 50.7 87.6C68.6 87.6 99 90 99 90C99 90 95.9 45.3 94.2 38C92.5 30.7 86.5 16.7 77.3 10.1C68.1 3.5 65.4 0 54.6 0C43.8 0 29.2 6.4 20 21.4C10.8 36.4 0.1 90.8 0.1 90.8Z" fill="#EDEDED"/>
<path d="M98.5 83.1998C98.5 83.1998 72.4 78.7998 49.5 78.7998C26.6 78.7998 1.6 83.1998 1.6 83.1998C0.6 87.8998 -1.49012e-09 90.7998 -1.49012e-09 90.7998C-1.49012e-09 90.7998 32.7 87.5998 50.6 87.5998C68.5 87.5998 99 89.9998 99 89.9998C99 89.9998 98.9 87.2998 98.5 83.1998Z" fill="#F5F5F5"/>
<g opacity="0.08">
<path d="M64.6 65.7003L61.4 68.3003C60.1871 69.4926 59.4723 71.1011 59.4 72.8003H69.1V70.2003H62.9C63.4569 69.4248 64.1728 68.777 65 68.3003C65.9922 67.7277 66.9007 67.021 67.7 66.2003C68.5414 65.3083 69.0069 64.1265 69 62.9003C69.0232 62.2812 68.9098 61.6646 68.6678 61.0943C68.4258 60.5239 68.0613 60.0139 67.6 59.6003C66.6232 58.7789 65.3753 58.351 64.1 58.4003C61 58.4003 59.4 60.1003 59.4 63.4003H62.1C62.1 61.6003 62.8 60.7003 64.2 60.7003C64.4786 60.671 64.7603 60.706 65.0233 60.8028C65.2862 60.8995 65.5235 61.0553 65.7167 61.2582C65.91 61.4611 66.054 61.7056 66.1378 61.973C66.2216 62.2404 66.2429 62.5234 66.2 62.8003C66.2266 63.3842 66.0912 63.9641 65.8089 64.4759C65.5265 64.9877 65.1081 65.4114 64.6 65.7003Z" fill="black"/>
<path d="M56.1 70.2H49V58.5H46V72.8H56.1V70.2Z" fill="black"/>
</g>
</g>
<defs>
<clipPath id="clip0_3_4962">
<rect width="200" height="90.8" fill="white"/>
</clipPath>
</defs>
</svg>
