<svg id="Layer_1" data-name="Layer 1" xmlns="http://www.w3.org/2000/svg" width="750" height="630.46" viewBox="0 0 750 630.46">
  <defs>
    <style>
      .cls-1 {
        fill: #ff0002;
      }

      .cls-2 {
        fill: #fff;
      }
    </style>
  </defs>
  <g>
    <path class="cls-1" d="M664.37,214c-6.72-16.68-20.54-20.88-21.82-22-11.7-10.34-2.47-21.22-19.95-30.7-18.28-9.91-72-37-114.22-31.37-9.22,1.23-27.83,17.6-41.21,17.6H282.84c-13.38,0-32-16.37-41.22-17.6-42.24-5.63-95.93,21.46-114.22,31.37-17.47,9.48-8.24,20.36-19.94,30.7-1.28,1.12-15.1,5.32-21.82,22C22.89,370-1.74,469.11.09,529.13,3,623.55,76.67,630.46,76.67,630.46c37-8.62,111.55-129.14,168.54-129.14H504.8c57,0,131.5,120.52,168.54,129.14,0,0,73.68-6.91,76.56-101.33C751.77,469.11,727.09,370,664.37,214Z" transform="translate(0 0)"/>
    <path class="cls-1" d="M548.36,115l50.43,6.84C586.73,5,555.82,10.76,549.08,5.47c-.4-.32-.8-.62-1.21-.9C541.45.09,534.3-.31,522,.14,511.22.54,510,11.58,509.86,15.33v1.23a819.45,819.45,0,0,1,0,93.09C519.65,111.91,547.58,114.86,548.36,115Z" transform="translate(0 0)"/>
    <path class="cls-1" d="M201.68,115s28.61-3,38.53-5.3a819.45,819.45,0,0,1,0-93.09V15.33C240.09,11.58,238.85.54,228,.14c-12.25-.45-19.4-.05-25.81,4.43-.41.28-.81.58-1.21.89-6.76,5.3-37.65-.49-49.72,116.33l50.4-6.84Z" transform="translate(0 0)"/>
  </g>
  <g>
    <path class="cls-2" d="M184.22,353.41V308.6h12.94q24.78,0,24.78,21.84,0,10.38-6.88,16.67t-18.44,6.3Zm7.4-38.5v32.22h5.94q7.84,0,12.21-4.31t4.35-12.19q0-15.72-16.28-15.72Z" transform="translate(0 0)"/>
    <path class="cls-2" d="M233,314.69a4.37,4.37,0,0,1-3.05-1.15,3.83,3.83,0,0,1-1.26-2.94,3.91,3.91,0,0,1,1.26-3,4.32,4.32,0,0,1,3.05-1.19,4.42,4.42,0,0,1,3.12,1.19,3.86,3.86,0,0,1,1.29,3,3.82,3.82,0,0,1-1.29,2.89A4.38,4.38,0,0,1,233,314.69Zm3.59,38.72h-7.25v-32h7.25Z" transform="translate(0 0)"/>
    <path class="cls-2" d="M244,352.41v-6.72a14.43,14.43,0,0,0,9,3.1c4.38,0,6.56-1.3,6.56-3.88a3,3,0,0,0-.56-1.86,5.47,5.47,0,0,0-1.52-1.36,11.8,11.8,0,0,0-2.25-1.06l-2.89-1.06a30.92,30.92,0,0,1-3.54-1.66,10.54,10.54,0,0,1-2.63-2,7.55,7.55,0,0,1-1.58-2.52,9.36,9.36,0,0,1-.53-3.28,7.6,7.6,0,0,1,1.1-4.08,9.53,9.53,0,0,1,2.93-3,14.29,14.29,0,0,1,4.19-1.81,19.07,19.07,0,0,1,4.85-.61,21.91,21.91,0,0,1,7.93,1.35v6.34a13.38,13.38,0,0,0-7.75-2.31,10,10,0,0,0-2.48.28,6.55,6.55,0,0,0-1.89.78,3.78,3.78,0,0,0-1.22,1.2,2.91,2.91,0,0,0-.44,1.55,3.32,3.32,0,0,0,.44,1.75,3.84,3.84,0,0,0,1.3,1.26,10.69,10.69,0,0,0,2.06,1c.8.31,1.72.63,2.77,1a38.16,38.16,0,0,1,3.7,1.72,12.47,12.47,0,0,1,2.8,2,7.92,7.92,0,0,1,1.78,2.56,8.84,8.84,0,0,1,.62,3.46,7.91,7.91,0,0,1-1.12,4.25,9.34,9.34,0,0,1-3,3,14,14,0,0,1-4.33,1.76,22.26,22.26,0,0,1-5.17.58A21.73,21.73,0,0,1,244,352.41Z" transform="translate(0 0)"/>
    <path class="cls-2" d="M296.53,351.94a17.85,17.85,0,0,1-9.09,2.22q-7.12,0-11.5-4.45a15.77,15.77,0,0,1-4.38-11.55q0-7.91,4.71-12.7t12.57-4.8a18.37,18.37,0,0,1,7.72,1.53v6.75a11.66,11.66,0,0,0-7.12-2.5,9.89,9.89,0,0,0-7.53,3.11,11.36,11.36,0,0,0-2.94,8.14,10.88,10.88,0,0,0,2.76,7.85,9.86,9.86,0,0,0,7.43,2.87,11.61,11.61,0,0,0,7.37-2.78Z" transform="translate(0 0)"/>
    <path class="cls-2" d="M317.91,354.16q-7.41,0-11.83-4.48t-4.42-11.89q0-8.07,4.61-12.6t12.42-4.53q7.5,0,11.69,4.41t4.18,12.22q0,7.65-4.51,12.26T317.91,354.16Zm.34-27.72a8.29,8.29,0,0,0-6.72,3c-1.64,2-2.47,4.71-2.47,8.19a11.75,11.75,0,0,0,2.5,7.92,8.4,8.4,0,0,0,6.69,2.89,8,8,0,0,0,6.58-2.84q2.3-2.85,2.29-8.1t-2.29-8.15A7.93,7.93,0,0,0,318.25,326.44Z" transform="translate(0 0)"/>
    <path class="cls-2" d="M370.44,353.41h-7.25v-18q0-9-6.35-9a6.9,6.9,0,0,0-5.46,2.49,9.18,9.18,0,0,0-2.16,6.26v18.25h-7.28v-32h7.28v5.31h.12a11.42,11.42,0,0,1,10.38-6.06c3.48,0,6.13,1.13,8,3.39s2.75,5.53,2.75,9.8Z" transform="translate(0 0)"/>
    <path class="cls-2" d="M407.78,353.41h-7.25v-18q0-9-6.34-9a6.92,6.92,0,0,0-5.47,2.49,9.18,9.18,0,0,0-2.16,6.26v18.25h-7.28v-32h7.28v5.31h.13a11.39,11.39,0,0,1,10.37-6.06q5.22,0,8,3.39t2.75,9.8Z" transform="translate(0 0)"/>
    <path class="cls-2" d="M443.72,339.38H421.91a9.19,9.19,0,0,0,2.73,6.84,10.15,10.15,0,0,0,7.17,2.41,15.84,15.84,0,0,0,9.41-3.06v5.84q-4.38,2.74-11.56,2.75t-11.08-4.36q-4-4.35-4-12.26,0-7.47,4.42-12.18a14.49,14.49,0,0,1,11-4.7q6.55,0,10.15,4.22t3.6,11.72v2.78Zm-7-5.12a9.36,9.36,0,0,0-1.84-6.08,6.16,6.16,0,0,0-5-2.17,7,7,0,0,0-5.3,2.28,10.38,10.38,0,0,0-2.67,6Z" transform="translate(0 0)"/>
    <path class="cls-2" d="M473.53,351.94a17.85,17.85,0,0,1-9.09,2.22q-7.12,0-11.5-4.45a15.77,15.77,0,0,1-4.38-11.55q0-7.91,4.71-12.7t12.57-4.8a18.37,18.37,0,0,1,7.72,1.53v6.75a11.66,11.66,0,0,0-7.12-2.5,9.89,9.89,0,0,0-7.53,3.11,11.36,11.36,0,0,0-2.94,8.14,10.88,10.88,0,0,0,2.76,7.85,9.86,9.86,0,0,0,7.43,2.87,11.61,11.61,0,0,0,7.37-2.78Z" transform="translate(0 0)"/>
    <path class="cls-2" d="M497.59,353.07a12.65,12.65,0,0,1-5.59,1.06q-9.31,0-9.31-8.94V327.1h-5.35v-5.69h5.35V314l7.25-2.06v9.47h7.65v5.69h-7.65v16a6.29,6.29,0,0,0,1,4.06,4.29,4.29,0,0,0,3.44,1.22,4.94,4.94,0,0,0,3.18-1.06Z" transform="translate(0 0)"/>
    <path class="cls-2" d="M530.56,339.38H508.75a9.19,9.19,0,0,0,2.73,6.84,10.16,10.16,0,0,0,7.18,2.41,15.81,15.81,0,0,0,9.4-3.06v5.84q-4.37,2.74-11.56,2.75t-11.08-4.36q-4-4.35-4-12.26,0-7.47,4.42-12.18a14.48,14.48,0,0,1,11-4.7q6.57,0,10.16,4.22t3.59,11.72v2.78Zm-7-5.12a9.31,9.31,0,0,0-1.84-6.08,6.16,6.16,0,0,0-5-2.17,7.05,7.05,0,0,0-5.3,2.28,10.38,10.38,0,0,0-2.67,6Z" transform="translate(0 0)"/>
    <path class="cls-2" d="M566.56,353.41h-7.25V348h-.12A12.51,12.51,0,0,1,539,349.86q-3.54-4.29-3.54-11.7,0-7.94,3.92-12.72a12.82,12.82,0,0,1,10.45-4.78q6.47,0,9.41,5.19h.12V306h7.25Zm-7.15-14.62V334.6a8.15,8.15,0,0,0-2.22-5.78,7.39,7.39,0,0,0-5.66-2.38,7.61,7.61,0,0,0-6.39,3c-1.55,2-2.33,4.83-2.33,8.41a12.08,12.08,0,0,0,2.24,7.7,7.25,7.25,0,0,0,6,2.83,7.52,7.52,0,0,0,6-2.73A10.28,10.28,0,0,0,559.41,338.79Z" transform="translate(0 0)"/>
  </g>
</svg>
